
<svg width="59px" height="52px" viewBox="0 0 59 52" version="1.1" xmlns="http://www.w3.org/2000/svg" xmlns:xlink="http://www.w3.org/1999/xlink">
    <g id="Design" stroke="none" stroke-width="1" fill="none" fill-rule="evenodd">
        <g id="03a---Homepage---Sarabun-Copy" transform="translate(-814.000000, -233.000000)">
            <g id="Hero" transform="translate(0.000000, 81.000000)">
                <g id="Butterfly" transform="translate(814.000000, 152.000000)">
                    <g id="Group-12" fill="#71D0FF">
                        <path d="M4.42170519,32.6654824 C2.72373117,34.4373059 0.96215974,36.3207765 0.354536364,38.6967176 C-0.783320779,43.1480706 2.45938052,48.6746 6.47597792,50.5320706 C8.90723766,51.6569529 11.7836792,51.7869529 14.306887,50.8853647 C16.7910169,49.9983059 18.8276662,48.2111882 21.0757961,46.8347176 C22.7369909,45.8176588 24.7422247,44.9336588 26.7351987,45.0430118 C29.0086143,45.1676588 29.187913,46.8943647 30.2744325,48.6088353 C31.7509649,50.9373647 34.7821857,52.1639529 37.4663026,51.5177765 C38.165874,51.3503059 38.8516532,51.0589529 39.3765234,50.5672471 C40.725861,49.3031882 40.646939,47.1597176 40.2975364,45.3450706 C39.9489,43.5304235 39.4470169,41.5712471 40.2461987,39.9049529 C41.1940299,37.9304824 43.5662896,37.1673059 45.6864584,36.6029529 C48.3843675,35.8864235 51.0830429,35.1691294 53.7817182,34.4518353 C54.9134455,34.1513059 56.0712247,33.8377765 57.0244195,33.1594824 C57.9776143,32.4819529 58.6971078,31.3501882 58.5507571,30.1916588 C58.4174325,29.1363647 57.5944974,28.2684235 56.6413026,27.7920118 C55.6881078,27.3156 54.6107831,27.1626588 53.554913,27.0166 C51.5328221,26.7367176 49.5114974,26.4576 47.4901727,26.1777176 C46.5676273,26.0507765 45.5722896,25.8863647 44.9294195,25.2149529 C44.2413416,24.4961294 44.1570558,23.3941882 44.2666273,22.4061882 C44.7470558,18.0794824 48.1330429,14.2437176 47.6687052,9.91471765 C47.3913286,7.33077647 45.7125104,5.04201176 43.5846792,3.54395294 C41.4560818,2.04665882 38.9114195,1.25136471 36.3644584,0.712247059 C33.8266922,0.174658824 31.2008091,-0.131223529 28.6385234,0.274070588 C24.4556532,0.934011765 20.6313805,3.5776 18.5403286,7.25354118 C16.0132896,11.6949529 15.3474325,17.1710118 13.4065623,21.9007176 C11.6380948,26.2090706 7.59008182,29.3596588 4.42170519,32.6654824" id="Fill-10"></path>
                    </g>
                    <path d="M12,25 C23.3114002,28.4963423 34.1178271,33.5627317 44,40" id="Stroke-13" stroke="#000000" stroke-width="3"></path>
                    <path d="M2,25 C5.06959238,23.6487852 8.62208697,23.1805637 12,23.6844185 C10.878834,19.2480726 7.01561624,15.4417234 2.16897573,14" id="Stroke-15" stroke="#000000" stroke-width="3"></path>
                    <path d="M38,14.9996069 C38,18.8658242 35.0896939,22 31.4996349,22 C27.9103061,22 25,18.8658242 25,14.9996069 C25,11.1341758 27.9103061,8 31.4996349,8 C35.0896939,8 38,11.1341758 38,14.9996069" id="Fill-17" fill="#FFFFFF"></path>
                    <path d="M19,40.0003709 C19,43.3139643 16.3139643,46 13.0003709,46 C9.68677752,46 7,43.3139643 7,40.0003709 C7,36.6867775 9.68677752,34 13.0003709,34 C16.3139643,34 19,36.6867775 19,40.0003709" id="Fill-19" fill="#FFFFFF"></path>
                    <path d="M10.0002088,39.8117072 C9.98948475,40.7271566 10.3934247,41.5871011 10.840261,42.3687307 C11.2048793,43.0051353 11.6495708,43.6575071 12.3123183,43.9008159 C13.111619,44.1935468 14.0002869,43.7989303 14.655885,43.2317166 C15.4144342,42.5755432 16.004973,41.6152337 15.9999684,40.5750885 C15.9956788,39.6740856 15.5574218,38.8483563 15.1320337,38.0705285 C14.5450696,36.9969283 13.5591701,35.638961 12.2315303,36.088322 C11.0325793,36.4935832 10.0145076,38.579196 10.0002088,39.8117072" id="Fill-21" fill="#66AF37"></path>
                    <path d="M32.4324967,40.5290001 C33.2279307,41.1877508 33.8544347,42.1395989 33.9827949,43.2135709 C34.059944,43.8637012 33.8836982,44.6366737 33.3310179,44.9060646 C32.7264614,45.2005988 32.0454209,44.7494587 31.5399612,44.2861062 C31.2859012,44.0533524 31.0331713,43.804076 30.8861889,43.4808068 C30.5257163,42.6891565 30.6188273,40.6597445 30.0162661,39.1238567 C29.8021108,38.5793278 31.7614324,39.9736955 32.4324967,40.5290001" id="Fill-23" fill="#FFFFFF"></path>
                    <path d="M39.6120652,30.522495 C40.6474633,31.1287414 41.7430496,31.6890487 42.945185,31.9089543 C44.1465071,32.1288598 45.481219,31.96619 46.428775,31.2477314 C46.663834,31.0707526 46.8777458,30.8516002 46.9623344,30.58199 C47.1355786,30.0277075 46.6866078,29.4387823 46.1188876,29.2008024 C45.550354,28.9635755 44.9004851,28.9891809 44.2782702,29.0185519 C42.2709155,29.1157019 39.9341529,28.9424886 38,29.3973618 C38.4074897,29.8258763 39.0264512,30.2513785 39.6120652,30.522495" id="Fill-25" fill="#FFFFFF"></path>
                    <path d="M27.0457291,16.3923526 C27.3008682,17.8298365 28.696898,18.9489717 30.1668039,18.9981229 C31.6359482,19.0480303 33.0586343,18.0975215 33.6709682,16.7696826 C34.6511593,14.6433256 33.3663245,11.3706112 30.8134102,11.0205033 C28.4288116,10.6915683 26.6923424,14.4005943 27.0457291,16.3923526" id="Fill-27" fill="#66AF37"></path>
                </g>
            </g>
        </g>
    </g>
</svg>