
<svg width="352px" height="185px" viewBox="0 0 352 185" version="1.1" xmlns="http://www.w3.org/2000/svg" xmlns:xlink="http://www.w3.org/1999/xlink">
    <g id="Homepage" stroke="none" stroke-width="1" fill="none" fill-rule="evenodd">
        <g id="03a---Homepage---Drop-Down---Puppies" transform="translate(-1040.000000, -4195.000000)">
            <g id="Contact-Us" transform="translate(0.000000, 3948.000000)">
                <g id="Dog-on-Grass---Desktop" transform="translate(1040.000000, 247.000000)">
                    <g id="Dog-1" transform="translate(174.000000, 0.000000)">
                        <path d="M71.042495,158.598412 C75.0735018,158.656115 78.920793,156.298036 82.1741786,153.778471 C91.5094038,146.548906 99.1777228,137.196951 104.425518,126.642583 C107.007089,121.449718 109.159889,115.768759 113.585243,112.008645 C114.745608,120.325454 113.455166,128.966518 109.915572,136.587518 C106.739365,143.424276 101.860464,149.336258 96.6401988,154.78688 C88.9813298,162.783655 79.2124857,170.417865 68.1718787,169.845303 C67.2227346,172.349617 66.1785711,174.169743 65.0983872,175 L12.6487661,175 C12.6487661,175 12.977641,173.771939 13.9515586,172.16332 L0.0852577226,172.972608 C-0.555663886,169.925348 2.31829301,160.696682 12.0684687,159.006273 C18.0693648,157.966075 30.8590647,159.006273 30.8590647,159.006273 C30.8590647,159.006273 18.7006769,153.367299 23.4074228,142.211425 C26.8375174,134.082455 33.3037639,133.493322 36.5592022,133.771782 C33.297421,126.411204 28.8809737,116.867222 23.7436287,106.381212 C22.2120901,103.254944 21.0969772,100.057805 20.324887,96.8547045 C19.2168625,97.3840791 17.8487972,97.3348292 16.2471293,95.969461 C11.5393468,91.9562344 13.8935795,78.9139273 19.2734145,75.2349099 C19.3773795,75.1638262 19.4895067,75.0968639 19.6094418,75.0338901 C21.3006661,63.8390075 25.5828831,54.8674047 28.1143735,51.958563 C32.8218023,46.550216 41.227291,43.5085788 41.227291,43.5085788 C44.9253509,37.0854373 42.571978,30.3251753 40.89129,30.3251753 C39.2099191,30.3251753 21.5466465,28.7514885 17.6915129,22.5501188 C14.329454,17.1417719 17.0195109,8.7170276 17.3555119,5.6494638 C17.6915129,2.5819 39.0542113,7.339186 44,2.5819 C48.9457887,-2.175386 67.452443,0.578924011 71.4865039,7.339186 C75.4845055,14.0374324 63.3103564,44.9558192 61.449843,57.0327426 C68.7445218,58.6451647 68.9890302,70.1035467 68.3653476,77.2415232 C67.8122134,83.5656543 64.9860225,93.0552235 63.9986049,96.2295151 L64.0897012,97.5920479 C64.0897012,97.5920479 65.4350711,109.423536 70.477818,123.958855 C73.4417417,132.499413 73.038707,147.10932 71.042495,158.598412 Z M21.7862107,57.2170365 L18.1314049,66.998337 L13.8125798,63.6255457 C14.1445895,66.998337 8.49705089,81.8391672 8.49705089,81.8391672 C8.49705089,81.8391672 3.18152194,82.8510731 1.18811424,78.1286171 C-0.805293467,73.4068462 5.50693933,58.566016 8.82906057,54.1813187 C12.1518566,49.7966214 21.7862107,57.2170365 21.7862107,57.2170365 Z" id="Combined-Shape" fill="#9E7343"></path>
                        <polygon id="Path-11" fill="#FF9100" points="41.8903258 36 59.5438264 39.4934604 64.8401074 45.2779364 64.8401074 47.8701018 40.0252593 43"></polygon>
                        <path d="M57.2329925,36.1056661 C58.3427721,39.5578873 61,42.8533919 65.1016689,44.833588 C66.6778882,45.5945523 72.4714618,47.647913 74,46.9984238 C76.6638855,45.8662993 74,40.10126 76.8077095,32 C79.8212204,23.3049279 77.7785938,10.8951455 76.8077095,9.0763 C73.5011745,2.87719455 65.0733155,0.643743813 59.7137575,4.21386594 C56.6919232,6.22645506 56.8653694,8.84440672 57.2329925,12.1208108 C57.7996296,17.1740022 58.2522483,22.0286236 57.6821561,27.1190469 C57.2557962,30.9249708 56.0603301,32.4583223 57.2329925,36.1056661 Z" id="Fill-9" fill="#9E7343"></path>
                        <g id="Group-13" transform="translate(68.000000, 112.000000)"></g>
                        <path d="M9,173 C9,173 11.3612848,164.064955 22.1563169,162.690601 C32.9520343,161.316247 50.4937901,162.690601 50.4937901,162.690601 C50.4937901,162.690601 30.2529336,152.037788 42.3978587,138.292156 C54.5420985,124.547221 65,137.605328 65,137.605328" id="Stroke-14" stroke="#000000" stroke-width="2"></path>
                        <path d="M52.2630428,78.3638241 C52.2630428,78.3638241 24.9621205,70.909216 19.5694387,74.6361759 C14.1767569,78.3638241 11.8169023,91.5785295 16.5359268,95.6448044 C21.2549513,99.7117677 23.9509498,92.2571596 23.9509498,92.2571596 L25.6357778,84.1239214 C25.6357778,84.1239214 55.9708966,87.1736277 64.059577,97 C64.059577,97 68.1042595,84.4625483 68.7786015,76.6693134 C69.4522588,68.8760786 69.1154301,56 60.0148945,56" id="Stroke-16" stroke="#000000" stroke-width="2"></path>
                        <path d="M61,56.0512222 C56.7292421,55.5629067 52.3327188,58.6178815 51,63" id="Stroke-20" stroke="#000000" stroke-width="2"></path>
                        <path d="M61,11 C55.9800364,26.8153931 57.448766,18.5029213 57,36" id="Path-12" stroke="#000000" stroke-width="2"></path>
                        <ellipse id="Oval" fill="#000000" cx="49" cy="11.5" rx="2" ry="2.5"></ellipse>
                    </g>
                    <path d="M0,185 L349.17321,185 C349.17321,185 346.943355,174.71779 347.71161,164.820785 C348.478994,154.924643 352.243615,145.413707 351.987531,145 C342.44532,150.002483 338.441163,160.629305 334.499721,169.32492 C329.411123,165.974672 330.010396,153.762982 329.91284,148.489301 C324.312072,153.313001 322.887927,161.381578 318.311498,167.171744 C317.071142,168.74193 314.334344,172.209639 311.885859,170.847602 C309.919057,169.754173 310.374609,164.325891 310.815354,162.464643 C310.973883,161.794421 311.922442,158.63073 311.491279,158.888109 C307.231037,161.422171 303.047446,168.242718 299.663467,171.684516 C297.730636,173.650271 294.367563,176.409755 291.457428,176.592857 C288.916613,176.751776 285.546571,175.576296 283.044953,175.052037 C278.059137,174.006974 271.872161,172.723533 267.713831,169.591799 C264.13474,166.897955 261.332614,163.197051 257.420787,161.005873 C257.876339,165.2224 258.796154,169.39056 260.160198,173.409302 C251.194614,172.838404 242.415432,169.626347 235.224151,164.286162 C234.561292,163.827543 236.114351,168.446548 238.192645,172.9265 C211.605112,171.457366 174.899613,171.05316 151.816262,171.911666 C120.01383,173.094056 83.3455571,175.052037 53.9144138,177.674153 L0,185 Z" id="Grass" fill="#66AF37"></path>
                </g>
            </g>
        </g>
    </g>
</svg>