<svg width="32" height="29" viewBox="0 0 32 29" fill="none" xmlns="http://www.w3.org/2000/svg">
<path d="M17.4887 26.7372L17.4855 26.7402C16.6522 27.4989 15.368 27.4986 14.5349 26.729L14.535 26.729L14.5301 26.7246L14.3542 26.5642L14.3525 26.5626C10.1332 22.7338 6.73053 19.6398 4.39553 16.7368C2.07517 13.8521 0.912697 11.2795 1.00513 8.50502C1.0906 6.08442 2.32948 3.76888 4.3122 2.41495L4.31275 2.41458C8.05 -0.141088 12.7031 1.02599 15.2383 4.00212L15.9996 4.89575L16.7608 4.00212C19.2981 1.02355 23.9501 -0.154617 27.6842 2.41312L27.6869 2.41495C29.6699 3.76905 30.9088 6.08502 30.994 8.50595L30.9941 8.50673C31.0938 11.2797 29.9325 13.8515 27.6094 16.741C25.2795 19.6391 21.8873 22.7303 17.6861 26.5587L17.6486 26.5929L17.6451 26.596L17.4887 26.7372Z" fill="#FF9100" stroke="#FF9100" stroke-width="2"/>
</svg>
