
<svg width="3377px" height="712px" viewBox="0 0 3377 712" version="1.1" xmlns="http://www.w3.org/2000/svg" xmlns:xlink="http://www.w3.org/1999/xlink">
    <defs>
        <polyline id="path-1" points="0 351.127803 0 0 3377 0 3377 712 0 712 0 351.127803"></polyline>
    </defs>
    <g id="Styleguide" stroke="none" stroke-width="1" fill="none" fill-rule="evenodd">
        <g id="Footer-wide">
            <mask id="mask-2" fill="white">
                <use xlink:href="#path-1"></use>
            </mask>
            <use id="Mask" fill="#E6FFFD" fill-rule="nonzero" xlink:href="#path-1"></use>
            <g mask="url(#mask-2)" fill-rule="nonzero">
                <g transform="translate(-109.000000, 0.000000)">
                    <polyline id="Path" fill="#E6FFFD" points="108.281804 351.792143 108.281804 0.468361345 3485.09067 0.468361345 3485.09067 712.865756 108.281804 712.865756 108.281804 351.792143"></polyline>
                    <path d="M2198.73501,693.19458 C2280.05513,688.880378 2360.96654,704.521008 2440.90232,720.095672 C2551.59684,741.653487 2663.6625,770.88979 2776.22258,777.690924 C2833.31674,781.147563 2890.46364,784.604202 2947.65668,784.083067 C3054.25091,783.106765 3160.24526,768.303908 3266.76038,764.049076 C3376.63006,759.67636 3486.65896,766.528339 3595.13916,784.498655 L3597.02585,536.049454 C3597.07723,527.698109 3596.93221,518.687101 3591.92221,512.011303 C3588.62616,507.604748 3583.61617,504.847353 3578.73802,502.347227 C3510.45706,467.483992 3429.9214,457.298782 3355.12745,474.067437 C3311.91625,483.751303 3270.79474,502.037185 3227.07595,509.029622 C3115.01028,526.979076 3004.44761,469.172731 2890.97123,466.382353 C2730.22951,462.42437 2585.79664,559.507101 2422.47741,537.78437 C2362.72663,529.83542 2307.47167,498.336471 2247.31218,494.53021 C2180.07278,490.268782 2114.7319,534.281555 2047.35406,533.272269 C1971.03734,532.117857 1901.9192,490.842689 1829.18198,467.701681 C1724.85544,434.507395 1610.32433,438.676471 1509.74209,481.877857 C1460.49912,503.046471 1412.77892,530.864496 1359.17857,536.887227 C1271.89919,546.703025 1191.26465,499.095084 1104.86202,498.158361 C1014.98535,497.188655 938.800473,559.223445 849.873069,565.648571 C762.000401,571.994538 680.456146,525.171597 599.142616,491.284664 C533.973134,464.132899 464.703366,444.514496 394.128364,443.630546 C323.553361,442.746597 251.290781,461.764706 195.745762,505.355294 C168.962067,526.411765 146.153408,552.870882 116.324164,569.289916 C87.925405,584.910756 55.215414,590.267227 24.3907631,600.294118 C17.798665,602.424832 10.9890276,604.997521 6.55913765,610.307815 C0.916301642,617.056176 0.428486379,626.581723 0.197762944,635.375042 C-0.131841963,648.192311 -0.369157496,661.504328 4.85837633,673.213361 C17.1987841,700.853277 52.8027061,707.515882 82.9945156,709.494874 C197.354234,716.955672 312.116071,710.359034 426.528526,703.762395 C616.315032,692.825168 806.154274,681.881345 995.426596,664.142983 C1012.46717,662.54 1031.16236,660.099244 1042.68535,647.427101 C1054.05672,634.893487 1057.92628,623.870504 1074.87456,623.118487 C1090.03639,622.458824 1110.87401,628.560714 1127.68386,628.593697" id="Path" fill="#66AF37"></path>
                    <path d="M2528.41243,723.453361 L9.74312105,715.438445 C21.7143713,708.459202 35.1688436,699.890168 50.0010644,697.871597 C95.6579361,691.637773 142.949648,697.449412 187.38039,685.199454 C236.471745,671.656555 277.065885,637.466176 323.73794,617.095756 C403.785787,582.133571 495.791701,590.115504 581.324175,607.926429 C666.856648,625.737353 751.354162,652.829748 838.673094,654.320588 C876.248053,654.980252 914.970038,650.481345 948.148068,632.782563 C996.626358,606.923739 1027.05548,557.976681 1082.08632,544.519538 C1131.48091,532.441092 1185.86572,539.901891 1235.40534,547.481429 C1313.75242,559.460924 1394.50563,560.41084 1471.0267,538.477017 C1502.57648,529.433025 1532.91332,516.747689 1564.18623,506.852731 C1589.63832,498.798235 1611.55046,492.597395 1641.76204,490.486471 C1702.58733,486.231639 1763.63675,499.523866 1816.45264,526.372185 C1880.57398,558.972773 1941.23447,602.048824 2011.79629,615.967731 C2055.56095,624.530597 2100.81107,621.344178 2142.94608,606.732437 C2196.79034,587.978193 2245.02472,550.746765 2301.81564,545.542017 C2350.36645,541.095882 2397.65816,560.898992 2446.14963,565.938824 C2472.57736,568.683025 2499.78954,567.146008 2526.88965,565.463866 C2597.89973,561.057311 2669.41081,521.061891 2740.47363,524.657059 C2833.16512,529.353866 2918.97447,577.990882 3011.47479,585.563824 C3097.49507,592.609034 3185.4073,563.794916 3269.46314,583.367143 C3341.04673,600.050042 3401.60834,650.250462 3473.5545,665.271008 C3517.53038,674.453529 3563.04223,669.888655 3607.84872,666.649706 C3613.67614,666.227521 3619.91885,665.924076 3624.93544,668.91895 C3630.41347,672.217269 3633.07009,678.589622 3635.25207,684.592563 C3642.29625,703.982295 3648.05702,723.815106 3652.497,743.962311 C3653.81542,749.899286 3654.96245,756.304622 3652.54315,761.878782 C3648.28465,771.71437 3635.61464,774.042983 3624.92226,774.729034 C3552.51465,779.40605 3479.98839,771.199832 3407.59396,766.364496 C3143.98914,748.777857 2877.74748,775.850462 2615.98845,740.070294 C2565.75666,733.203193 2514.8393,724.020672 2464.70639,731.547437" id="Path" fill="#9DD87D"></path>
                    <rect id="Rectangle" fill="#51B02B" opacity="0.5" x="1219.98642" y="631.522605" width="339.176634" height="16.9071849" rx="8.45359244"></rect>
                    <rect id="Rectangle" fill="#51B02B" opacity="0.5" x="1568.12831" y="631.522605" width="117.345939" height="16.9071849" rx="8.45359244"></rect>
                    <path d="M1073.29905,569.039244 C1076.10728,576.823277 1082.24453,583.347353 1088.88277,589.079832 C1107.03741,604.786429 1130.01087,616.192017 1154.73783,621.772773 L1157.22964,615.037605 C1157.22964,615.037605 1091.26252,601.916891 1075.38875,551.87479 C1074.65702,549.565966 1072.55414,546.016975 1071.53237,543.820294 C1071.4321,543.472982 1071.1938,543.182059 1070.87316,543.015504 C1070.5929,542.957393 1070.30135,542.992125 1070.04255,543.114454 L1066.19936,544.433782 C1065.67767,544.564998 1065.20286,544.83912 1064.8282,545.225378 C1063.04834,547.468235 1067.21454,554.645378 1068.1704,556.861849 C1069.89753,560.925378 1071.80264,564.889958 1073.29905,569.039244 Z" id="Path" fill="#66AF37"></path>
                    <path d="M1148.27758,637.004412 C1146.52408,628.82458 1148.06004,619.668445 1154.55325,613.592941 C1159.38526,609.074244 1166.41903,606.732437 1173.46598,606.07937 C1180.51294,605.426303 1187.59944,606.330042 1194.5607,607.451471 C1204.93007,609.113824 1215.7477,611.528193 1223.28906,617.966513 C1214.22937,620.902986 1204.84532,622.721718 1195.34516,623.382353 C1203.75008,625.66479 1213.33499,628.936723 1215.89273,636.298571 C1208.57286,638.184851 1200.90822,638.291158 1193.53892,636.608613 C1197.36944,639.970466 1200.85424,643.707381 1203.94125,647.763529 C1204.59283,648.464841 1205.00788,649.353199 1205.12783,650.303235 C1205.12783,651.767689 1203.63802,652.981471 1202.00977,653.324496 C1200.35078,653.569539 1198.65821,653.445663 1197.05251,652.961681 C1190.32391,651.372199 1183.90294,648.684364 1178.04749,645.006134 C1179.75484,649.623782 1178.41665,654.683403 1176.72907,659.327437 C1175.54249,662.625756 1174.13838,665.924076 1171.60042,668.602311 C1169.06246,671.280546 1165.14675,673.121008 1161.22446,672.659244 C1159.99833,666.596933 1159.48414,660.785294 1156.28038,655.296891 C1152.77339,649.260966 1150.62436,643.370168 1148.27758,637.004412 Z" id="Path" fill="#71D0FF"></path>
                    <path d="M1788.71969,734.271849 C1792.67494,721.738235 1786.64318,707.568655 1776.48475,699.256891 C1766.32633,690.945126 1752.8389,687.732563 1739.72721,687.251008 C1737.52545,687.171849 1734.88861,686.901387 1733.89321,684.935588 C1733.17467,683.523908 1733.66248,681.815378 1734.28214,680.364118 C1739.31191,668.562731 1752.42359,661.438361 1765.265,661.299832 C1778.10641,661.161303 1790.39408,667.104874 1800.15698,675.423235 C1797.15757,666.451807 1794.8833,656.860294 1796.72249,647.58542 C1798.28482,639.748613 1802.98499,632.452731 1809.84736,628.356218 C1816.70973,624.259706 1825.6684,623.659412 1832.7549,627.379916 C1840.49402,631.463235 1844.95028,639.71563 1848.95169,647.499664 L1858.10152,665.310588 C1856.47986,654.201849 1860.5406,642.057437 1869.51903,635.328866 C1878.49747,628.600294 1892.30132,628.494748 1900.50189,636.160042 C1904.76039,640.118025 1907.22583,645.646008 1909.40782,651.055252 C1911.926,657.317661 1914.21126,663.665826 1916.2636,670.099748 C1925.27499,657.881472 1939.3349,650.408915 1954.49703,649.779449 C1969.65917,649.149982 1984.2893,655.431453 1994.28108,666.860798 C1982.63285,662.59937 1969.93646,671.649958 1963.99039,682.534412 C1958.04432,693.418866 1956.3106,706.137185 1951.04351,717.364664 C1941.67614,737.352479 1920.55506,751.26479 1898.50449,751.97063" id="Path" fill="#71D0FF"></path>
                    <path d="M1144.34868,554.777311 C1166.07789,557.189216 1187.65792,560.796439 1208.9908,565.582605 C1180.5393,579.125504 1149.83331,592.727773 1118.67905,588.011176 C1109.54241,586.619286 1069.02078,575.616092 1083.74093,560.898992 C1096.35821,548.325798 1128.74519,553.062185 1144.34868,554.777311 Z" id="Path" fill="#66AF37"></path>
                    <polygon id="Rectangle" fill="#FF9100" transform="translate(1587.159397, 521.412176) rotate(-57.850000) translate(-1587.159397, -521.412176) " points="1586.19636 436.760027 1588.17496 436.759413 1588.12244 606.064325 1586.14383 606.064938"></polygon>
                    <path d="M1311.40564,556.756303 L1268.31968,571.994538 C1268.3922,572.34416 1270.53463,582.285294 1271.54322,586.902941 C1272.26395,590.214454 1272.99348,593.512773 1273.7318,596.797899 C1274.07458,598.361303 1274.75357,600.096218 1274.77994,601.732185 C1274.66221,603.139557 1275.25,604.51367 1276.34886,605.399916 C1279.12201,608.060407 1282.21033,610.371036 1285.54483,612.28021 C1286.93577,613.078403 1288.56402,613.823824 1290.09338,613.329076 C1290.96406,612.977745 1291.7309,612.410164 1292.32151,611.679916 C1292.72205,611.305318 1293.01751,610.832244 1293.17848,610.307815 C1293.24245,609.47536 1292.97734,608.651037 1292.44017,608.012185 C1292.21604,607.662563 1291.97872,607.352521 1291.78096,606.976513 C1290.09997,604.502773 1287.20604,601.375966 1286.62594,598.400882 C1286.3227,596.850672 1287.05443,594.680378 1287.28515,593.123571 C1287.54883,591.309496 1287.81252,589.502017 1288.08279,587.687941 C1288.68927,583.567241 1289.31112,579.444342 1289.94836,575.319244 L1319.448,568.28063" id="Path" fill="#DBA258"></path>
                    <path d="M1250.64627,578.182185 L1266.93534,592.69479 C1267.24964,592.998906 1267.74829,592.998906 1268.06259,592.69479 L1289.1573,581.071513 C1289.54624,580.682311 1289.35507,580.834034 1289.60557,581.322185 L1287.13353,597.530126 C1287.28635,597.824614 1287.24458,598.182542 1287.02806,598.433866 L1281.09517,605.307563 C1280.80471,605.646678 1280.83685,606.155567 1281.16768,606.455378 L1290.44936,614.786933 C1290.77503,615.079379 1290.81281,615.576605 1290.53505,615.914958 L1284.14072,623.633025 C1283.99861,623.802946 1283.79415,623.908487 1283.57341,623.925861 C1283.35267,623.943235 1283.13423,623.870978 1282.96732,623.725378 L1242.28089,587.918824 C1241.94889,587.623186 1241.91376,587.11628 1242.20179,586.777605 L1249.50583,578.248151 C1249.805,577.919899 1250.3113,577.890613 1250.64627,578.182185 L1250.64627,578.182185 Z" id="Path" fill="#FFFEFD"></path>
                    <path d="M1284.68786,625.361345 L1281.55662,624.642311 C1281.14491,624.571076 1280.75357,624.411278 1280.40959,624.17395 C1279.9111,623.73686 1279.58015,623.139804 1279.47351,622.48521 C1279.44055,622.379664 1279.41418,622.274118 1279.38122,622.175168 C1279.11584,621.357731 1278.43934,620.740935 1277.60136,620.552395 C1277.40132,620.5104 1277.19872,620.481752 1276.99488,620.466639 C1276.3751,620.441743 1275.76894,620.277132 1275.22161,619.985084 C1274.40207,619.395012 1273.82369,618.528013 1273.59336,617.544328 C1273.49612,617.2455 1273.38166,616.952559 1273.25057,616.666975 C1272.83242,615.859545 1272.0481,615.305956 1271.14769,615.182731 C1271.02973,615.165209 1270.91089,615.154198 1270.79172,615.149748 C1270.34018,615.13435 1269.89447,615.042916 1269.4733,614.879286 C1268.29991,614.364748 1267.91756,613.210336 1267.60774,612.286807 C1267.48008,611.790592 1267.25609,611.324367 1266.94853,610.914706 C1266.48209,610.538121 1265.92529,610.290232 1265.33346,610.195672 C1264.52833,610.030821 1263.7669,609.698171 1263.09874,609.21937 C1262.34366,608.526797 1261.78625,607.645711 1261.48368,606.666471 C1261.24678,605.284845 1260.06284,604.266183 1258.66226,604.238908 C1256.62811,604.064244 1254.93927,602.595486 1254.48287,600.60416 C1254.30509,599.959723 1253.9724,599.36862 1253.51383,598.882437 C1252.99765,598.53967 1252.41256,598.314482 1251.79988,598.222773 C1250.70329,598.088059 1249.68625,597.580355 1248.91914,596.784706 C1248.51272,596.234263 1248.21922,595.608751 1248.05557,594.944244 C1247.85122,594.28458 1247.70619,593.868992 1247.39636,593.710672 C1247.08787,593.601857 1246.75996,593.559155 1246.43392,593.585336 C1245.80825,593.623912 1245.18238,593.513122 1244.60791,593.262101 C1243.70983,592.739742 1243.08937,591.845857 1242.91374,590.821345 L1242.81485,590.412353 C1242.73868,589.945242 1242.57304,589.497257 1242.32704,589.093025 C1242.20672,588.923778 1242.01376,588.821125 1241.80626,588.815966 L1240.54717,587.292143 C1240.98332,586.937719 1241.54572,586.777946 1242.10291,586.850168 C1242.82014,586.946334 1243.46983,587.323609 1243.90914,587.899034 C1244.32004,588.515044 1244.60048,589.208758 1244.73316,589.937395 C1244.73316,590.069328 1244.79248,590.194664 1244.82544,590.32 C1244.8884,590.780901 1245.12405,591.200634 1245.48465,591.494202 C1245.79219,591.596887 1246.11758,591.635062 1246.44051,591.606345 C1247.1044,591.565336 1247.76757,591.697154 1248.3654,591.98895 C1249.17301,592.54247 1249.72787,593.39431 1249.90795,594.357143 C1250.00237,594.775723 1250.17213,595.173609 1250.40895,595.531345 C1250.91648,595.96359 1251.54497,596.228522 1252.20859,596.289958 C1253.11689,596.431081 1253.97941,596.783557 1254.72678,597.319034 C1255.46432,598.013868 1256.00359,598.892769 1256.2891,599.865336 C1256.46771,600.498474 1256.7878,601.082702 1257.22518,601.573866 C1257.77697,601.950051 1258.4091,602.191778 1259.07097,602.279706 C1260.02746,602.435157 1260.93215,602.819915 1261.70781,603.401134 C1262.42081,604.092751 1262.94893,604.95239 1263.24377,605.901261 C1263.43688,606.557124 1263.78511,607.156756 1264.25895,607.64937 C1264.72334,607.948134 1265.24001,608.156289 1265.78172,608.262857 C1266.7433,608.441876 1267.63073,608.90081 1268.33287,609.582185 C1268.8287,610.191508 1269.18835,610.900052 1269.3876,611.660126 C1269.64469,612.431933 1269.82268,612.913487 1270.17206,613.06521 C1270.38493,613.135463 1270.60716,613.173267 1270.83127,613.177353 C1270.98289,613.177353 1271.1411,613.177353 1271.29272,613.216933 C1272.84755,613.424237 1274.2009,614.38383 1274.91178,615.783025 C1275.08331,616.142267 1275.23086,616.51249 1275.35345,616.891261 C1275.46125,617.423603 1275.7306,617.909684 1276.12473,618.283151 C1276.43309,618.417299 1276.76425,618.491189 1277.10036,618.50084 C1277.37063,618.50084 1277.64091,618.56021 1277.90459,618.612983 C1279.45282,618.945146 1280.70802,620.075603 1281.20064,621.581471 C1281.24019,621.713403 1281.27316,621.845336 1281.31271,621.983866 C1281.35107,622.199882 1281.42693,622.407511 1281.53684,622.597353 C1281.66132,622.652237 1281.79188,622.692097 1281.92577,622.716092 L1285.05702,623.435126 L1284.68786,625.361345 Z" id="Path" fill="#000000"></path>
                    <path d="M1459.82673,588.00458 L1475.45659,631.014664 C1475.45659,631.014664 1521.04095,620.849244 1522.34618,619.800378 C1523.65142,618.751513 1525.20715,614.589034 1519.70935,614.589034 C1514.21154,614.589034 1478.55488,609.371092 1478.55488,609.371092 L1471.25742,579.917101" id="Path" fill="#BF8B4C"></path>
                    <path d="M1471.69909,632.248235 L1494.633,626.50916 C1495.05666,626.40172 1495.3228,625.981977 1495.23948,625.552647 L1492.45102,611.468824 C1492.39833,611.213355 1492.47159,610.948116 1492.64791,610.75599 C1492.82423,610.563864 1493.08211,610.468284 1493.34095,610.499118 L1501.43605,611.369874 L1509.8212,612.28021 C1510.15352,612.316506 1510.43027,612.551643 1510.51996,612.873908 L1512.97222,621.62105 C1513.02776,621.827752 1513.1633,622.003799 1513.34886,622.110261 C1513.53442,622.216722 1513.75472,622.244828 1513.96104,622.188361 L1526.03117,619.035168 C1526.45553,618.927734 1526.88978,619.171078 1527.01998,619.589286 L1529.93369,629.240168 C1529.99629,629.451923 1529.97067,629.68001 1529.86266,629.872576 C1529.75465,630.065142 1529.57342,630.205827 1529.36018,630.262647 L1475.21268,644.623529 C1474.78377,644.738115 1474.34188,644.489194 1474.21728,644.062815 L1471.1124,633.277311 C1471.0461,633.062835 1471.07156,632.830456 1471.18274,632.635456 C1471.29391,632.440456 1471.48085,632.300266 1471.69909,632.248235 L1471.69909,632.248235 Z" id="Path" fill="#FFFEFD"></path>
                    <path d="M1480.0381,645.448109 C1479.50513,645.43594 1478.97759,645.337934 1478.47577,645.157857 L1478.06706,645.019328 C1477.63795,644.822608 1477.1742,644.712756 1476.7025,644.696092 C1476.49616,644.704827 1476.30584,644.809818 1476.18831,644.979748 L1474.21068,645.19084 C1474.15416,644.631059 1474.33062,644.072703 1474.6985,643.647227 C1475.17265,643.098486 1475.8472,642.763352 1476.57065,642.717101 C1477.31163,642.710599 1478.04582,642.858885 1478.72627,643.152479 L1479.09543,643.284412 C1479.5078,643.479484 1479.97834,643.512445 1480.41385,643.376765 C1480.66778,643.177156 1480.87859,642.928053 1481.03351,642.644538 C1481.36285,642.065992 1481.83786,641.583836 1482.41125,641.24605 C1483.31684,640.871847 1484.33368,640.871847 1485.23926,641.24605 C1485.64003,641.395827 1486.06397,641.473976 1486.49176,641.476933 C1487.13216,641.28755 1487.69998,640.907981 1488.12001,640.388487 C1488.73824,639.709547 1489.50546,639.183412 1490.36132,638.851471 C1491.35054,638.619521 1492.38369,638.655957 1493.35414,638.957017 C1493.97843,639.151997 1494.63857,639.203853 1495.28562,639.108739 C1495.90373,638.859709 1496.4547,638.468793 1496.89409,637.967521 C1498.16213,636.364471 1500.31301,635.753305 1502.23369,636.450294 C1502.88709,636.650604 1503.57933,636.689088 1504.25087,636.562437 C1504.74406,636.336675 1505.1911,636.021294 1505.56929,635.632311 C1506.24398,634.929986 1507.10694,634.437509 1508.05452,634.214034 C1508.83843,634.135974 1509.62994,634.22823 1510.37493,634.484496 C1511.15939,634.695588 1511.66039,634.807731 1511.97681,634.603235 C1512.15591,634.458773 1512.31157,634.287429 1512.43826,634.095294 C1512.53714,633.969958 1512.62943,633.851218 1512.73491,633.732479 C1513.76474,632.549029 1515.30982,631.947338 1516.86815,632.122899 C1517.26154,632.181258 1517.65115,632.262758 1518.03495,632.366975 C1518.53892,632.571723 1519.09384,632.615502 1519.62365,632.492311 C1519.9039,632.310185 1520.14577,632.074869 1520.33559,631.799664 C1520.51358,631.588571 1520.69157,631.377479 1520.88274,631.186176 C1522.01097,630.092148 1523.63504,629.680202 1525.14783,630.104328 C1525.27967,630.104328 1525.41151,630.183487 1525.54994,630.229664 C1525.75664,630.325858 1525.98123,630.377547 1526.20915,630.381387 C1526.32643,630.308656 1526.43294,630.219837 1526.52557,630.117521 L1528.84599,627.90105 L1530.21715,629.332521 L1527.89014,631.555588 C1527.60333,631.860414 1527.25194,632.097089 1526.86177,632.248235 C1526.22277,632.425025 1525.5422,632.373714 1524.93688,632.103109 L1524.62705,632.00416 C1523.79896,631.779978 1522.91399,632.005123 1522.29345,632.597857 C1522.15059,632.743859 1522.01632,632.89804 1521.89133,633.059622 C1520.95931,634.484814 1519.1221,635.007683 1517.5801,634.286597 C1517.27643,634.203302 1516.96831,634.137231 1516.6572,634.088697 C1515.755,633.998827 1514.86396,634.344224 1514.25768,635.018824 C1514.17857,635.111176 1514.10606,635.210126 1514.03355,635.302479 C1513.77573,635.678696 1513.45187,636.005012 1513.07769,636.265588 C1511.99659,636.964832 1510.8232,636.648193 1509.88712,636.390924 C1509.4088,636.223975 1508.90353,636.147908 1508.3973,636.166639 C1507.82294,636.34785 1507.30668,636.677844 1506.9009,637.123151 C1506.31806,637.699416 1505.62226,638.148627 1504.85735,638.442479 C1503.86303,638.689829 1502.82075,638.667056 1501.83817,638.376513 C1501.19655,638.187626 1500.52084,638.144801 1499.86054,638.251176 C1499.25129,638.506011 1498.708,638.896275 1498.27184,639.392395 C1497.00641,640.995653 1494.8514,641.598084 1492.93883,640.883235 C1492.30158,640.672874 1491.62231,640.623027 1490.96121,640.738109 C1490.39862,640.991095 1489.89551,641.359694 1489.48458,641.819958 C1488.76972,642.665037 1487.78435,643.236155 1486.69612,643.436134 C1486.02402,643.464306 1485.35275,643.363545 1484.71849,643.139286 C1484.05928,642.947983 1483.6242,642.842437 1483.34074,642.980966 C1483.07155,643.178139 1482.84693,643.429888 1482.68153,643.71979 C1482.3646,644.253895 1481.9265,644.705857 1481.40266,645.039118 C1480.99188,645.293636 1480.52106,645.43475 1480.0381,645.448109 Z" id="Path" fill="#000000"></path>
                    <path d="M1377.23433,443.999958 C1377.23433,443.999958 1353.8126,534.749916 1352.29642,535.495336 L1296.78436,557.594076 L1306.15833,583.518866 L1375.63245,558.161387 L1402.1986,478.00563 L1458.36328,599.383782 L1486.34674,586.942521 L1418.56678,439.243782 L1377.23433,443.999958 Z" id="Path" fill="#ACE5FC"></path>
                    <path d="M1422.33087,401.926597 L1439.90541,417.613403 L1474.28979,448.300966 C1482.20031,455.332983 1500.34835,471.435378 1500.34835,471.435378 C1500.34835,471.435378 1503.54552,463.479832 1523.87555,476.086008 C1522.97903,478.724664 1517.46803,476.745672 1518.29864,478.447605 C1519.30723,480.51895 1515.40471,486.436134 1512.21413,490.743739 C1510.13103,493.567101 1501.21192,486.957269 1500.56589,485.908403 C1497.56649,481.040084 1489.76804,475.716597 1485.48976,472.193992 C1481.21149,468.671387 1476.84093,465.148782 1472.47696,461.672353 C1468.33712,458.374034 1464.18191,455.097703 1460.0113,451.843361 C1457.9282,450.211793 1455.8407,448.586821 1453.74881,446.968445 C1452.95776,446.361555 1452.04805,445.332479 1451.15812,444.903697 C1450.26818,444.474916 1449.52328,444.857521 1448.5872,445.147773 C1447.76445,445.453667 1446.88412,445.573077 1446.00969,445.497395 C1445.12637,445.408074 1444.36508,444.83671 1444.03206,444.013151 C1443.93336,443.647997 1443.89331,443.269463 1443.9134,442.891723 C1443.9134,440.912731 1444.13753,440.061765 1442.64113,438.828193 C1442.04124,438.333445 1441.46114,437.825504 1440.86785,437.32416 L1435.52825,432.805462 L1418.32288,418.226891" id="Path" fill="#DBA258"></path>
                    <polygon id="Path" fill="#FFFEFD" points="1361.01777 393.878697 1429.15369 395.851092 1416.68804 421.50542 1423.57019 440.041975 1371.86836 446.051513 1378.36158 412.956176 1368.13064 416.663487"></polygon>
                    <path d="M1705.9493,553.042395 C1702.77776,543.360702 1699.0041,533.88702 1694.65045,524.676849 L1696.4369,523.832479 C1700.82872,533.125498 1704.63325,542.685235 1707.82805,552.455294 L1705.9493,553.042395 Z" id="Path" fill="#51B02B"></path>
                    <path d="M1687.57712,597.978697 L1691.21596,605.419706 L1681.74971,604.443403 C1681.74971,604.443403 1700.34602,618.804286 1700.02301,627.29416 C1699.69999,635.784034 1691.21596,625.315168 1688.9285,624.028824 C1686.64105,622.742479 1673.92489,612.603445 1673.92489,612.603445 L1672.94267,618.804286 C1672.94267,618.804286 1664.50478,613.579748 1665.16399,609.338109 C1665.8232,605.096471 1665.16399,610.657437 1665.16399,610.657437 C1665.16399,610.657437 1651.7227,618.269958 1615.22885,615.209118 L1612.55246,614.061303 L1609.30255,618.461261 L1607.0942,612.616639 C1607.0942,612.616639 1606.73822,622.722689 1601.87985,624.042017 L1598.29375,617.511345 C1598.29375,617.511345 1585.571,635.14416 1576.75736,636.120462 C1576.75736,636.120462 1574.4765,633.184958 1578.3922,626.977521 C1582.30791,620.770084 1590.46233,605.432899 1590.46233,605.432899 C1590.46233,605.432899 1572.51864,615.552143 1559.47947,610.334202 C1559.47947,610.334202 1559.80249,604.456597 1571.22,603.803529 L1584.93156,591.96916 L1574.8061,583.23521 L1583.61974,581.256218 C1583.61974,581.256218 1574.15348,572.766345 1572.52524,567.218571 L1585.57759,571.46021 C1585.57759,571.46021 1574.8061,562.323866 1575.78832,550.898487 C1575.78832,550.898487 1598.95296,570.160672 1599.92859,570.160672 C1600.90422,570.160672 1657.08867,566.816176 1657.08867,566.816176 L1671.00459,558.07563 L1666.44286,537.513908 L1676.22553,543.061681 L1680.79386,532.612605 L1689.36358,548.444538 L1711.77672,552.514664 L1720.59035,551.195336 C1720.59035,551.195336 1718.61272,573.393025 1716.99766,576.335126 C1715.38259,579.277227 1709.16625,577.964496 1709.16625,577.964496 L1703.9519,579.600462 L1696.80606,577.344412 L1697.12907,582.245714 L1690.60949,581.58605 L1693.45728,591.283109 L1688.80985,588.367395 C1688.80985,588.367395 1685.06553,592.628824 1685.02598,592.661807 C1684.57113,593.103782 1687.70237,597.576303 1688.12427,598.031471 C1690.25352,600.307311 1693.72755,602.13458 1696.45668,603.579244 C1699.04738,604.944748 1701.98745,606.297059 1703.12788,608.988487 C1703.78709,610.611261 1703.70799,612.451723 1703.54319,614.206429 C1696.08093,614.69458 1689.0999,610.868529 1681.82881,609.113824 C1677.47803,608.064958 1672.98881,607.754916 1668.51937,607.451471" id="Path" fill="#FFFEFD"></path>
                    <polygon id="Path" fill="#FF9100" points="1656.77225 566.934916 1685.96865 593.209328 1687.7617 590.438739 1689.62067 589.429454 1690.69519 588.479538 1667.97222 565.318739 1661.82839 563.016513"></polygon>
                    <path d="M1337.15437,423.253529 C1336.53471,423.253529 1295.88124,434.105 1295.255,434.105 C1294.62875,434.105 1272.53203,435.77395 1272.53203,435.77395 L1326.52791,465.60395 L1352.27664,467.892983 L1348.82898,425.133571 L1336.30399,422.837941" id="Path" fill="#66AF37"></path>
                    <path d="M1344.35953,447.39063 C1342.62581,446.942059 1291.25359,439.158025 1264.33146,435.107689 L1264.62811,433.128697 C1344.53752,445.160966 1344.9726,445.451218 1345.20332,445.602941 L1344.12881,447.252101 L1344.67596,446.427521 L1344.35953,447.39063 Z" id="Path" fill="#9DD87D"></path>
                    <polygon id="Rectangle" fill="#9DD87D" transform="translate(1319.849258, 432.666963) rotate(-2.870000) translate(-1319.849258, -432.666963) " points="1292.28109 431.678419 1347.41749 431.676519 1347.41743 433.655508 1292.28102 433.657407"></polygon>
                    <polygon id="Rectangle" fill="#9DD87D" transform="translate(1332.763531, 450.682846) rotate(-2.690000) translate(-1332.763531, -450.682846) " points="1320.68352 449.693742 1344.8436 449.692961 1344.84354 451.67195 1320.68346 451.67273"></polygon>
                    <polygon id="Rectangle" fill="#9DD87D" transform="translate(1295.395141, 441.101582) rotate(-55.660000) translate(-1295.395141, -441.101582) " points="1294.41162 423.150979 1296.39018 423.150344 1296.37866 459.052186 1294.4001 459.05282"></polygon>
                    <path d="M1336.91046,425.806429 C1338.15637,428.082269 1340.92505,429.058571 1342.57967,431.083739 C1342.72901,431.232334 1342.8222,431.428177 1342.84335,431.637857 C1342.81062,431.881292 1342.67957,432.100649 1342.48079,432.244748 C1341.40627,433.227647 1339.93624,433.768571 1339.06608,434.936176 C1338.03112,436.314874 1338.10363,438.274076 1338.7167,439.890252 C1339.32976,441.506429 1340.39768,442.898319 1341.3008,444.375966 C1341.41496,444.528771 1341.4794,444.713007 1341.48538,444.903697 C1341.48538,445.319286 1340.9712,445.510588 1340.58226,445.655714 C1338.13,446.539664 1336.66656,449.224496 1336.54131,451.830168 C1336.41606,454.43584 1337.39828,456.96895 1338.59145,459.297563 C1339.38909,460.85437 1340.44383,462.490336 1342.12481,462.978487 C1343.58167,463.400672 1345.66477,463.156597 1346.08007,464.601261 C1346.40308,465.636933 1345.48678,466.811134 1345.92845,467.80063 C1346.1543,468.210049 1346.50553,468.536091 1346.93045,468.730756 C1347.99299,469.303501 1349.17794,469.611257 1350.38471,469.627899 C1351.70313,469.627899 1352.66558,468.889076 1353.90489,468.427311 C1353.83462,469.316006 1353.81042,470.207748 1353.83238,471.09895 C1353.81541,471.412874 1353.89106,471.724862 1354.04992,471.996092 C1354.26221,472.229514 1354.54038,472.392853 1354.84756,472.464454 C1356.16733,472.977847 1357.57143,473.239619 1358.9874,473.236261 C1360.42034,473.226577 1361.77221,472.569574 1362.66579,471.448571 C1362.84378,471.204496 1363.06132,470.90105 1363.325,470.94063 C1363.51938,470.990298 1363.68707,471.113195 1363.79304,471.283655 C1364.64867,472.300838 1365.77237,473.057344 1367.03635,473.467143 C1368.27567,473.862941 1369.88414,473.783782 1370.56972,472.675546 C1371.46624,471.230882 1370.14123,469.865378 1370.30603,468.420714 C1370.35877,467.91937 1370.67519,467.477395 1370.76748,466.97605 C1370.83243,466.142162 1370.85443,465.30548 1370.8334,464.469328 C1370.92569,463.255546 1370.95206,462.543109 1372.15182,462.365 C1373.35158,462.186891 1375.05234,462.675042 1376.27847,462.628866 C1378.13085,462.562899 1379.03397,459.99021 1380.89294,459.732941 C1381.61834,459.72585 1382.33637,459.879014 1382.99582,460.181513 C1384.66362,460.742227 1386.95108,460.636681 1387.6828,459.040294 C1388.28928,457.720966 1387.53119,456.216933 1386.52259,455.207647 C1386.22595,454.910798 1385.86338,454.547983 1385.86338,454.152185 C1385.93759,453.769659 1386.1485,453.42728 1386.45667,453.189076 C1387.56415,452.054454 1388.32224,450.352521 1387.70258,448.894664 C1387.19499,447.713866 1385.96886,447.054202 1384.94049,446.256008 C1383.91212,445.457815 1382.96286,444.277017 1383.3452,443.030252 C1383.53111,442.568099 1383.81183,442.150108 1384.16922,441.803277 L1386.7665,438.89416 C1387.51141,438.056387 1386.95767,437.192227 1387.35979,436.149958 C1387.76191,435.107689 1387.07633,433.814748 1386.34461,432.970378 C1384.97345,431.400378 1383.96486,432.060042 1382.81124,430.331723 C1381.93449,429.012395 1382.23773,428.313151 1383.37157,427.211513 C1384.50541,426.109874 1385.87657,424.843319 1386.60829,423.438235 C1387.34001,422.033151 1386.48304,420.238866 1385.72495,418.899748 C1384.96686,417.56063 1384.82183,417.63979 1383.37157,417.138445 C1383.11448,417.046092 1383.95827,414.790042 1383.77369,414.592143 C1383.11448,413.833529 1383.37816,413.378361 1383.50341,412.362479 C1383.62866,411.346597 1382.72555,412.322899 1381.66422,412.18437 C1380.60289,412.04584 1379.4295,412.336092 1378.48683,411.834748 C1377.7551,411.445546 1377.20796,408.351723 1376.38395,408.27916 C1368.69097,407.619496 1372.31662,416.445798 1369.85118,418.114748 C1368.64482,418.932731 1368.38114,416.623908 1367.49121,414.935168 C1366.60127,413.246429 1364.94666,412.06563 1360.72771,413.892899 C1358.21612,414.981345 1355.3156,414.354664 1352.58647,414.49979 C1348.20932,414.730672 1332.66515,418.042185 1336.91046,425.806429 Z" id="Path" fill="#71D0FF"></path>
                    <path d="M1363.2459,401.207563 C1349.71891,405.092983 1336.126,409.921723 1322.32874,412.606555 C1320.96418,412.877017 1319.48755,413.206849 1318.60421,414.275504 C1317.6017,415.567852 1317.75343,417.412791 1318.95359,418.523739 C1319.26248,418.744477 1319.55344,418.989316 1319.82375,419.255966 C1321.14216,420.806176 1319.21727,423.583361 1318.84152,425.285294 C1318.42622,427.132353 1318.07684,428.999202 1317.70768,430.852857 C1316.75183,435.63542 1315.84871,440.42458 1315.03129,445.226933 C1314.24024,449.84458 1313.49533,454.462227 1313.05366,459.159034 C1312.86908,461.190798 1312.05166,465.049832 1313.31075,466.910084 C1315.47955,470.096261 1329.791,473.915714 1337.88609,466.494496 L1321.05647,461.606387 L1331.98617,425.595336 L1367.64942,414.981345" id="Path" fill="#DBA258"></path>
                    <path d="M1362.54054,453.426555 C1362.54054,453.426555 1371.32781,437.706765 1392.20498,435.068109 C1392.20498,435.068109 1387.59051,452.324916 1362.54054,453.426555 Z" id="Path" fill="#9DD87D"></path>
                    <path d="M1349.68595,443.419454 C1349.68595,443.419454 1347.81379,460.795 1359.5741,468.816513 C1359.5741,468.816513 1367.26048,455.953067 1349.68595,443.419454 Z" id="Path" fill="#9DD87D"></path>
                    <path d="M1327.64857,439.995798 C1333.79713,440.808909 1340.05093,440.130154 1345.88231,438.016807 C1345.88231,438.016807 1337.97179,432.627353 1330.17334,431.308025" id="Path" fill="#9DD87D"></path>
                    <path d="M1325.49954,450.880252 C1325.49954,450.880252 1330.66115,467.91937 1348.57189,470.445882 C1348.57189,470.445882 1344.61663,453.736597 1325.49954,450.880252 Z" id="Path" fill="#9DD87D"></path>
                    <path d="M1289.81651,437.291176 C1289.81651,437.291176 1287.83889,454.989958 1303.29736,464.390176 C1303.29736,464.403361 1306.25721,447.476387 1289.81651,437.291176 Z" id="Path" fill="#9DD87D"></path>
                    <path d="M1317.76042,430.595588 C1317.43081,430.483445 1306.99552,434.223739 1306.99552,434.223739 L1316.442,436.862395" id="Path" fill="#9DD87D"></path>
                    <path d="M1336.36332,424.750966 C1335.61885,423.145726 1335.70827,421.277219 1336.60262,419.750512 C1337.49697,418.223806 1339.08256,417.232972 1340.84595,417.098866 C1343.75965,416.87458 1346.87772,418.978908 1349.41567,417.56063 C1350.20703,417.02521 1350.91934,416.381249 1351.53174,415.647605 C1353.40389,413.767563 1356.28464,412.553782 1358.71712,413.589454 C1361.03095,414.565756 1362.35596,417.283571 1364.77526,417.930042 C1365.5131,418.090421 1366.26984,418.145939 1367.02317,418.094958 L1372.56712,417.982815" id="Path" fill="#71D0FF"></path>
                    <path d="M1353.54892,435.516681 C1353.54892,435.516681 1357.50418,418.312647 1372.47483,414.077605 C1372.47483,414.077605 1369.9171,431.011176 1353.54892,435.516681 Z" id="Path" fill="#9DD87D"></path>
                    <path d="M1368.63164,474.905236 C1367.79397,474.882941 1366.9665,474.715547 1366.18597,474.410462 C1364.93681,474.037662 1363.83813,473.277751 1363.04813,472.240168 C1362.64661,472.741784 1362.1656,473.174105 1361.62424,473.519916 C1359.89058,474.552299 1357.79814,474.792423 1355.87593,474.17958 C1354.78775,473.928551 1353.85632,473.228898 1353.3116,472.253361 C1352.95837,471.404776 1352.89578,470.463046 1353.13362,469.575126 C1353.55534,467.558066 1354.53795,465.701267 1355.96822,464.218655 L1357.38552,465.597353 C1356.21632,466.809426 1355.41409,468.328088 1355.07169,469.977521 C1354.84635,470.463926 1354.87562,471.030318 1355.14991,471.490863 C1355.4242,471.951408 1355.90811,472.24666 1356.44285,472.279748 C1357.81945,472.717959 1359.3173,472.550085 1360.56291,471.817983 C1361.46987,471.23441 1362.08956,470.295854 1362.27027,469.232101 C1362.27027,468.895672 1362.27027,468.572437 1362.27027,468.288782 L1364.24789,468.196429 C1364.29074,468.573421 1364.29074,468.954058 1364.24789,469.33105 C1364.22865,469.925325 1364.365,470.514309 1364.64342,471.03958 C1365.18953,471.769806 1365.96876,472.2912 1366.85177,472.517227 C1368.05154,472.952605 1368.9151,473.011975 1369.48861,472.695336 C1370.44447,472.193992 1370.60927,470.643782 1370.14782,469.594916 C1369.53476,468.275588 1368.17019,467.305882 1367.00998,466.448319 L1368.1636,464.845336 C1369.48202,465.795252 1371.11027,466.97605 1371.94087,468.757143 C1372.82421,470.650378 1372.5012,473.37479 1370.44447,474.450042 C1369.88773,474.751069 1369.26444,474.907566 1368.63164,474.905236 L1368.63164,474.905236 Z" id="Path" fill="#ACE5FC"></path>
                    <path d="M1375.16441,464.297815 L1375.01279,464.297815 C1373.69229,464.257288 1372.44224,463.692361 1371.53876,462.727815 C1370.01869,460.880021 1369.73173,458.308575 1370.80703,456.170756 L1372.5869,457.034916 C1371.85068,458.44569 1372.01614,460.158374 1373.00879,461.401891 C1373.54765,461.969527 1374.28997,462.299412 1375.07212,462.318824 C1375.70204,462.357473 1376.32063,462.138437 1376.78607,461.711933 C1377.43363,461.001996 1378.00173,460.223368 1378.48023,459.389916 C1378.91531,458.684076 1379.13944,458.36084 1379.60089,458.268487 L1380.02938,458.182731 L1380.39194,458.44 C1381.38922,459.070473 1382.51595,459.467354 1383.68799,459.601008 C1385.1822,459.851681 1386.10949,459.563627 1386.46986,458.736849 C1386.62225,458.323896 1386.62225,457.870054 1386.46986,457.457101 C1386.06213,456.457314 1385.34622,455.61381 1384.42631,455.049328 C1384.00589,454.73241 1383.81413,454.195626 1383.93849,453.683824 C1384.06173,453.173009 1384.48593,452.790444 1385.00641,452.720714 C1385.64293,452.647505 1386.23452,452.356164 1386.6808,451.896134 C1387.22963,451.304359 1387.42292,450.465349 1387.1884,449.692857 C1386.99167,449.205433 1386.67676,448.774692 1386.27209,448.439496 C1385.16047,447.443861 1383.72298,446.890055 1382.23114,446.882689 L1382.23114,446.882689 L1382.23114,444.903697 C1384.21882,444.906938 1386.13583,445.641869 1387.61688,446.968445 C1388.27251,447.520699 1388.77625,448.231425 1389.08033,449.033193 C1389.56785,450.500361 1389.21083,452.116922 1388.15084,453.241849 C1387.73136,453.688716 1387.22715,454.047514 1386.66762,454.297311 C1387.45621,454.982789 1388.04785,455.86631 1388.38157,456.856807 C1388.66675,457.718675 1388.63638,458.653943 1388.29587,459.495462 C1387.55096,461.217185 1385.80406,461.942815 1383.37157,461.533824 C1382.22891,461.374026 1381.11739,461.040339 1380.07552,460.544328 C1379.53968,461.468822 1378.89812,462.327766 1378.16381,463.103824 C1377.36091,463.882732 1376.28258,464.311991 1375.16441,464.297815 Z" id="Shape" fill="#ACE5FC"></path>
                    <path d="M1387.6828,437.258193 L1386.08752,436.083992 C1386.68913,435.273008 1386.68271,434.161744 1386.07175,433.357783 C1385.46079,432.553822 1384.39238,432.250704 1383.45068,432.61416 C1383.12373,432.739049 1382.75628,432.694628 1382.46845,432.49542 C1381.95427,432.139202 1381.95427,431.578487 1381.95427,430.872647 C1381.99879,430.293539 1381.93165,429.711266 1381.75651,429.157521 C1381.31484,428.266975 1379.94368,428.042689 1378.88235,428.339538 C1376.62563,429.051087 1375.19057,431.26465 1375.46105,433.616849 L1373.48342,433.913697 C1373.04983,430.567725 1375.10016,427.399393 1378.32862,426.426513 C1380.18759,425.905378 1382.56074,426.380336 1383.50341,428.273571 C1383.79718,428.978895 1383.93439,429.739646 1383.90553,430.503235 C1385.56191,430.369164 1387.14379,431.216035 1387.95155,432.669298 C1388.75931,434.122562 1388.64393,435.914113 1387.65644,437.251597 L1387.6828,437.258193 Z" id="Path" fill="#ACE5FC"></path>
                    <path d="M1385.75791,424.717983 L1384.55156,423.147983 C1385.54619,422.384414 1385.85386,421.018884 1385.2829,419.90208 C1384.71195,418.785276 1383.42532,418.235944 1382.22455,418.596303 L1381.64444,416.703067 C1382.26698,416.473655 1382.74071,415.957843 1382.91672,415.317773 C1383.17568,414.363189 1382.71477,413.359968 1381.8221,412.935209 C1380.92942,412.510451 1379.86091,412.785933 1379.28447,413.589454 L1377.5903,412.573571 C1377.83767,412.082057 1377.87803,411.511878 1377.70237,410.990378 C1377.53181,410.374961 1377.12073,409.854226 1376.56193,409.545714 C1375.3607,409.013907 1373.95398,409.314604 1373.07471,410.291134 C1372.18527,411.367347 1371.91819,412.82858 1372.36936,414.150168 L1370.48402,414.757059 C1369.82375,412.762912 1370.24832,410.568625 1371.60468,408.96521 C1373.08644,407.319918 1375.4715,406.842578 1377.47164,407.791008 C1378.50717,408.348168 1379.2747,409.299325 1379.60089,410.429664 C1379.65199,410.607675 1379.6938,410.788227 1379.72614,410.970588 C1380.10017,410.853548 1380.48813,410.786994 1380.87976,410.772689 C1382.19648,410.644482 1383.48609,411.205342 1384.29075,412.256152 C1385.09542,413.306962 1385.30119,414.698922 1384.83502,415.937857 C1384.73728,416.23607 1384.60916,416.523436 1384.45268,416.79542 C1385.58565,417.167663 1386.53063,417.964358 1387.08951,419.018487 C1388.03008,420.996393 1387.4773,423.362395 1385.75791,424.717983 L1385.75791,424.717983 Z" id="Path" fill="#ACE5FC"></path>
                    <path d="M1358.47322,451.282647 C1357.21327,451.281001 1356.014,450.740958 1355.17717,449.798403 L1356.67357,448.479076 C1357.2029,449.111053 1358.02675,449.41577 1358.83957,449.280206 C1359.65239,449.144643 1360.33295,448.589019 1360.62883,447.819412 C1360.78243,447.364643 1360.87984,446.892775 1360.91889,446.414328 C1360.96298,445.970329 1361.03564,445.529638 1361.13642,445.095 C1361.22061,444.680198 1361.43548,444.303336 1361.74949,444.019748 C1362.16428,443.710305 1362.67746,443.562575 1363.19316,443.60416 C1363.89192,443.60416 1365.08509,443.511807 1365.53335,442.805966 C1365.82831,442.202692 1365.71795,441.47956 1365.25649,440.991891 C1364.65807,440.385908 1363.86843,440.005968 1363.02176,439.916639 L1361.53195,439.685756 L1362.32959,438.412605 C1362.81151,437.768006 1363.14471,437.024556 1363.30522,436.235714 C1363.33739,435.600401 1363.09765,434.981446 1362.64601,434.533782 C1362.03349,433.872294 1361.16725,433.504907 1360.26627,433.524496 C1358.27997,433.730114 1356.48426,434.798638 1355.35515,436.446807 L1353.66099,435.430924 C1355.13603,433.210326 1357.53956,431.780808 1360.19375,431.545504 C1361.66045,431.515607 1363.07205,432.104577 1364.08309,433.168277 C1364.93808,434.025202 1365.37632,435.213118 1365.28285,436.42042 C1365.20589,437.080265 1365.00694,437.720027 1364.69616,438.307059 C1365.49656,438.584332 1366.21183,439.063779 1366.77267,439.69895 C1367.80126,440.85126 1367.97907,442.532366 1367.21434,443.874622 C1366.4958,444.99605 1365.13124,445.583151 1363.25908,445.583151 L1363.06132,445.583151 C1362.98633,445.929321 1362.9313,446.279522 1362.89651,446.632017 C1362.8402,447.278369 1362.70061,447.914723 1362.48121,448.525252 C1361.90484,449.910293 1360.66201,450.905242 1359.18516,451.163908 C1358.95181,451.22442 1358.71357,451.264155 1358.47322,451.282647 Z" id="Path" fill="#ACE5FC"></path>
                    <path d="M1346.53493,461.606387 C1346.00782,461.610148 1345.48613,461.499887 1345.00556,461.283151 C1343.62433,460.656525 1342.86472,459.152722 1343.17955,457.668193 L1345.09126,458.169538 C1345.01699,458.724642 1345.3178,459.262172 1345.82957,459.488866 C1346.48513,459.747166 1347.22604,459.663138 1347.8072,459.26458 C1348.49022,458.800986 1349.02567,458.15068 1349.34975,457.391134 L1349.92986,456.170756 L1350.91867,457.100882 C1351.87958,457.979238 1353.22575,458.298548 1354.47841,457.945252 C1355.02887,457.798022 1355.51687,457.476322 1355.86934,457.028319 C1356.15433,456.651902 1356.24701,456.163774 1356.11984,455.708992 L1357.9854,455.049328 C1358.32593,456.11283 1358.13724,457.275186 1357.47781,458.176134 C1356.86922,458.978843 1356.01496,459.560325 1355.04533,459.831891 C1353.53112,460.269873 1351.90366,460.067195 1350.54292,459.271176 C1350.10258,459.941188 1349.52513,460.510039 1348.84875,460.940126 C1348.15576,461.376262 1347.35358,461.607249 1346.53493,461.606387 Z" id="Path" fill="#ACE5FC"></path>
                    <path d="M1348.34116,431.624664 L1347.02274,430.127227 C1347.74668,429.382595 1348.05954,428.329966 1347.85994,427.310462 C1347.84267,427.027924 1347.74169,426.756936 1347.56989,426.532059 C1347.28643,426.23521 1346.61403,426.23521 1345.92845,426.27479 L1344.32657,426.373739 L1344.98578,424.902689 C1345.32198,424.117689 1345.64499,423.312899 1345.3879,422.758782 C1345.09126,422.099118 1343.9706,421.868235 1343.10044,421.894622 C1342.24226,421.863023 1341.39871,422.12347 1340.70751,422.633445 C1340.21921,423.027256 1340.0476,423.695383 1340.28562,424.276008 L1338.60463,425.318277 C1337.72788,423.91979 1338.32776,422.099118 1339.40887,421.149202 C1340.43651,420.32717 1341.71914,419.890775 1343.03452,419.91563 C1345.04511,419.836471 1346.61403,420.614874 1347.20073,421.973782 C1347.4992,422.725232 1347.53176,423.55625 1347.29302,424.328782 C1347.94537,424.400211 1348.55423,424.6909 1349.02015,425.153361 C1349.48514,425.672822 1349.77362,426.326402 1349.84416,427.02021 C1350.14888,428.7103 1349.58412,430.440468 1348.34116,431.624664 L1348.34116,431.624664 Z" id="Path" fill="#ACE5FC"></path>
                    <path d="M1367.86036,434.058824 L1366.23212,432.943992 C1366.80046,432.113117 1367.26534,431.215938 1367.61646,430.272353 C1367.81044,429.861513 1367.8836,429.403922 1367.8274,428.953025 C1367.64942,428.240588 1366.55513,427.818403 1365.62564,427.534748 L1364.52476,427.198319 L1365.02576,426.15605 C1365.4568,425.24438 1365.68187,424.24889 1365.68497,423.240336 C1365.71893,422.942785 1365.65654,422.642182 1365.50699,422.382773 C1365.29721,422.215408 1365.04713,422.106208 1364.78185,422.066134 C1362.66426,421.553768 1360.43258,421.83292 1358.50618,422.851134 C1358.25383,422.965644 1358.04229,423.154316 1357.8997,423.392059 C1357.90592,423.361589 1357.90592,423.330176 1357.8997,423.299706 L1356.07369,424.078109 C1355.62543,423.022647 1356.2319,421.828655 1357.58328,421.103025 C1359.93778,419.889117 1362.65217,419.570384 1365.22353,420.205882 C1365.88467,420.330243 1366.49066,420.657658 1366.95725,421.142605 C1367.43394,421.761476 1367.66836,422.533252 1367.61646,423.312899 C1367.6106,424.243774 1367.45707,425.167815 1367.1616,426.050504 C1368.15042,426.459496 1369.34359,427.178529 1369.68638,428.524244 C1369.84755,429.357815 1369.75097,430.220746 1369.40951,430.997983 C1369.0181,432.076928 1368.49795,433.104644 1367.86036,434.058824 Z" id="Path" fill="#ACE5FC"></path>
                    <path d="M1301.88665,433.016555 C1301.88665,432.521807 1307.06804,425.977941 1315.73005,421.037059 L1310.91782,433.141891" id="Path" fill="#9DD87D"></path>
                    <path d="M1243.362,417.059286 L1242.20179,415.456303 C1249.86181,409.901933 1259.6313,409.281849 1269.8029,409.110336 C1278.72201,408.958613 1288.8277,408.780504 1296.52068,403.747269 L1297.60178,405.403025 C1289.42758,410.752899 1279.01866,410.931008 1269.83587,411.089328 C1259.99386,411.254244 1250.56057,411.841345 1243.362,417.059286 Z" id="Path" fill="#51B02B"></path>
                    <path d="M1212.89332,464.271429 C1210.88527,463.224129 1208.75202,462.437188 1206.54513,461.929622 C1206.01117,461.784496 1205.47721,461.63937 1204.94984,461.48105 C1193.69931,458.162271 1183.65312,451.647345 1176.03031,442.726807 L1177.53331,441.440462 C1184.90226,450.069711 1194.61687,456.371827 1205.49699,459.581218 L1207.06591,460.023193 C1209.43592,460.575608 1211.7263,461.426778 1213.88214,462.556303 L1212.89332,464.271429 Z" id="Path" fill="#51B02B"></path>
                    <path d="M1256.33525,487.168361 C1256.33525,487.168361 1270.03363,482.953109 1287.1599,490.862479 C1287.1599,490.862479 1272.67047,498.507983 1256.33525,487.168361 Z" id="Path" fill="#9DD87D"></path>
                    <path d="M1162.72086,402.876513 C1162.72086,402.876513 1132.44336,405.673487 1113.2208,381.173571 C1113.2208,381.173571 1141.21744,375.744538 1162.72086,402.876513 Z" id="Path" fill="#9DD87D"></path>
                    <path d="M1184.74506,449.580714 C1184.74506,449.580714 1193.43345,460.992899 1191.92386,479.806513 C1191.92386,479.806513 1179.75484,468.836303 1184.74506,449.580714 Z" id="Path" fill="#66AF37"></path>
                    <path d="M1205.69475,434.94937 C1205.69475,434.94937 1222.13544,425.054412 1246.93492,429.084958 C1246.92832,429.084958 1230.56674,443.46563 1205.69475,434.94937 Z" id="Path" fill="#9DD87D"></path>
                    <path d="M1292.34129,390.441849 C1292.34129,390.441849 1285.64372,403.120588 1267.95052,409.651261 C1267.94393,409.651261 1272.78253,393.99084 1292.34129,390.441849 Z" id="Path" fill="#66AF37"></path>
                    <path d="M1065.7511,471.408992 L1065.59289,469.43 C1082.89759,468.011147 1099.41826,461.594495 1113.14828,450.959412 L1115.08636,449.422395 C1117.89459,447.166345 1120.79512,444.837731 1124.17027,443.327101 L1124.9811,445.13458 C1121.83667,446.539664 1119.04821,448.789118 1116.31908,450.966008 C1115.65987,451.487143 1115.00066,452.008277 1114.34145,452.522815 C1100.31342,463.39289 1083.43349,469.953808 1065.7511,471.408992 Z" id="Path" fill="#51B02B"></path>
                    <path d="M1087.95988,466.283403 C1087.95988,466.283403 1108.57337,459.14584 1135.03405,470.241387 C1135.03405,470.267773 1113.40538,482.662857 1087.95988,466.283403 Z" id="Path" fill="#66AF37"></path>
                    <path d="M1295.22863,405.376639 C1295.07117,406.16101 1295.17057,406.97528 1295.51209,407.698655 C1295.84221,408.202998 1296.29617,408.614111 1296.83051,408.892647 C1300.07781,410.696249 1304.02509,410.696249 1307.27239,408.892647 C1308.19428,408.43995 1308.93894,407.692462 1309.38845,406.768529 C1309.82582,405.808323 1309.52835,404.67274 1308.67651,404.050714 C1308.16308,403.831552 1307.62851,403.665765 1307.08122,403.555966 C1306.54726,403.384454 1306.0133,402.955672 1306.04626,402.394958 C1306.07922,401.834244 1306.63296,401.491218 1307.101,401.200966 C1308.02269,400.628579 1308.85369,399.921521 1309.56644,399.103235 C1309.85038,398.825702 1310.03955,398.465573 1310.10699,398.07416 C1310.17291,397.262773 1309.28957,396.688866 1308.48534,396.576723 C1307.6811,396.46458 1306.82413,396.576723 1306.06604,396.306261 C1307.86568,395.112269 1309.55985,392.691303 1307.02189,391.800756 C1305.14973,391.141092 1302.99412,392.974958 1301.66251,394.023824 C1298.10275,396.80843 1295.78953,400.890169 1295.22863,405.376639 Z" id="Path" fill="#71D0FF"></path>
                    <path d="M1691.82903,556.855252 C1691.31386,557.164384 1690.96703,557.691066 1690.88636,558.286723 C1690.57447,559.070377 1690.57447,559.943825 1690.88636,560.727479 C1691.42707,561.585699 1692.54179,561.874685 1693.43091,561.387143 C1694.28329,560.851696 1694.66778,559.808504 1694.36699,558.847437 C1694.04075,557.902316 1693.20868,557.222922 1692.21796,557.092731" id="Path" fill="#000000"></path>
                    <path d="M1718.25675,551.208529 C1717.57349,551.406827 1717.03736,551.938356 1716.83286,552.62021 C1716.76304,553.202967 1716.8614,553.793545 1717.11632,554.322143 C1717.80849,556.202185 1718.5468,558.148193 1719.97729,559.553277 C1720.45607,557.282542 1720.77765,554.981442 1720.93973,552.666387 C1721.06498,550.872101 1719.72019,550.720378 1718.25675,551.208529 Z" id="Path" fill="#000000"></path>
                    <polygon id="Rectangle" fill="#000000" transform="translate(1673.894067, 550.256131) rotate(-70.570000) translate(-1673.894067, -550.256131) " points="1665.51059 549.269051 1682.27797 549.26543 1682.27754 551.24321 1665.51016 551.246831"></polygon>
                    <path d="M1590.17228,604.073992 L1589.31531,602.292899 C1590.11056,601.894294 1590.79118,601.299473 1591.29294,600.56458 C1588.49344,599.858582 1585.89171,598.522981 1583.68566,596.65937 L1582.4793,595.636891 L1583.92297,594.977227 C1584.72062,594.627605 1585.53145,594.317563 1586.35546,594.033908 C1583.86364,592.886092 1581.67507,590.847731 1579.61174,588.756597 L1575.85424,584.989916 L1577.25836,583.591429 L1581.00927,587.358109 C1583.85046,590.207857 1586.94215,592.985042 1590.49529,592.991639 L1590.66669,594.97063 C1589.18109,595.236155 1587.72106,595.629002 1586.30272,596.144832 C1588.29861,597.511454 1590.56092,598.439932 1592.94096,598.869244 L1594.12754,599.080336 L1593.69246,600.201765 C1593.0414,601.885841 1591.78627,603.266503 1590.17228,604.073992 L1590.17228,604.073992 Z" id="Path" fill="#000000"></path>
                    <path d="M1689.55475,611.237941 L1687.88036,610.505714 C1686.7289,610.034545 1685.66906,609.36471 1684.74911,608.526723 C1682.37562,607.452385 1680.55082,605.444919 1679.70616,602.97895 L1681.57831,602.319286 C1682.26527,604.326433 1683.77644,605.944261 1685.73134,606.76542 L1685.98843,606.870966 L1686.14664,607.088655 C1686.38455,607.348277 1686.6601,607.570648 1686.96406,607.748319 C1686.5949,605.584622 1686.19938,603.295588 1685.80385,601.006555 C1685.27648,597.972101 1684.74911,594.944244 1684.28767,592.193445 L1686.2653,591.863613 C1686.72674,594.614412 1687.25411,597.635672 1687.77489,600.663529 C1688.29566,603.691387 1688.81644,606.673067 1689.27789,609.397479 L1689.55475,611.237941 Z" id="Path" fill="#000000"></path>
                    <path d="M1664.63003,612.075714 C1663.39116,609.351989 1662.93464,606.33687 1663.31161,603.368151 L1665.28924,603.618824 C1664.96663,606.223697 1665.36096,608.867276 1666.42967,611.264328 L1664.63003,612.075714 Z" id="Path" fill="#000000"></path>
                    <path d="M1613.31714,615.110168 C1612.57223,614.641807 1612.88865,613.942563 1613.22485,613.210336 C1613.6797,612.207647 1615.07064,609.16 1615.00472,607.933025 L1616.98235,607.834076 C1617.05486,609.318319 1616.08582,611.679916 1615.00472,614.015126 C1614.88606,614.272395 1614.80036,614.463697 1614.7674,614.549454 L1613.85769,614.206429 L1613.85769,614.206429 L1614.62237,614.866092 L1613.31714,615.110168 Z" id="Path" fill="#000000"></path>
                    <path d="M1566.59894,608.282647 C1567.0052,608.157265 1567.37277,607.930214 1567.66686,607.622983 C1568.17445,607.055672 1568.12171,606.191513 1568.04261,605.432899 C1567.73278,602.497395 1562.46569,604.845798 1561.60213,606.389412 C1559.69042,609.88563 1564.77293,608.929118 1566.59894,608.282647 Z" id="Path" fill="#000000"></path>
                    <path d="M1579.96771,629.405084 C1581.067,628.174895 1581.74789,626.6274 1581.91238,624.985336 C1581.97742,624.668492 1581.90819,624.338848 1581.72121,624.075 C1581.53509,623.916081 1581.3053,623.817202 1581.062,623.791345 C1580.35665,623.639622 1579.52604,623.527479 1579.00527,624.028824 C1578.84272,624.208006 1578.71126,624.413133 1578.61633,624.635714 C1578.13511,625.62521 1576.86284,627.934034 1577.00786,629.121429 C1577.2254,630.876134 1578.95912,630.519916 1579.96771,629.405084 Z" id="Path" fill="#000000"></path>
                    <path d="M1689.90413,625.229412 C1689.179,625.110672 1689.02739,623.99584 1689.55475,623.481303 C1690.1489,623.026378 1690.93238,622.902323 1691.63786,623.151471 C1692.81797,623.464045 1693.84846,624.186585 1694.54497,625.189832 C1695.03279,625.895672 1695.30966,626.924748 1694.74273,627.571218 C1694.33516,627.967766 1693.7527,628.127181 1693.20018,627.993403 C1692.66117,627.860834 1692.14851,627.637786 1691.684,627.333739 L1689.36358,625.928655" id="Path" fill="#000000"></path>
                    <path d="M1669.17858,565.727731 C1668.13478,566.980132 1667.21007,568.327292 1666.41649,569.751681 C1666.27806,570.00895 1666.1594,570.365168 1666.38353,570.549874 C1666.50424,570.62292 1666.64519,570.655291 1666.78565,570.642227 L1671.28805,570.642227 C1671.42124,570.631373 1671.55458,570.66128 1671.67039,570.727983 C1671.84838,570.859916 1671.84179,571.117185 1671.81542,571.334874 L1671.50559,574.131849 C1671.34763,574.578432 1671.44106,575.075481 1671.75039,575.434105 C1672.05971,575.792729 1672.53743,575.957867 1673.002,575.866765 C1675.37029,576.163606 1677.76635,576.163606 1680.13465,575.866765" id="Path" fill="#FFFEFD"></path>
                    <path d="M1674.7489,577.41038 C1673.91918,577.41079 1673.09135,577.331263 1672.27686,577.172899 C1671.79477,577.104572 1671.33964,576.908729 1670.95844,576.605588 C1670.02896,575.787605 1670.14762,574.428697 1670.67498,573.439202 C1670.78046,573.241303 1670.89912,573.05 1671.01777,572.865294 C1671.22166,572.588526 1671.37559,572.278206 1671.47263,571.948361 L1671.34079,571.948361 L1664.35975,571.664706 L1665.0717,570.286008 C1665.47382,569.494412 1665.78365,568.768782 1666.08029,568.069538 C1666.4791,567.052356 1666.9666,566.072272 1667.53715,565.14063 C1665.93519,564.993471 1664.34505,564.737815 1662.77765,564.37542 C1661.72292,564.157731 1660.72751,563.953235 1659.76506,563.814706 L1660.04193,561.835714 C1661.0703,561.98084 1662.13822,562.205126 1663.17977,562.416218 C1665.31561,562.86479 1667.52396,563.319958 1669.48841,563.135252 L1672.12525,562.877983 L1670.29924,564.797605 C1669.23908,565.965256 1668.42321,567.333449 1667.89971,568.821555 C1667.76787,569.138193 1667.62944,569.461429 1667.48441,569.791261 L1671.43967,569.94958 C1671.95764,569.932614 1672.46547,570.095794 1672.87675,570.411345 C1673.34992,570.849541 1673.5705,571.496878 1673.46344,572.133067 C1673.34812,572.770026 1673.09377,573.373675 1672.71854,573.900966 C1672.61759,574.049524 1672.52516,574.203694 1672.44167,574.362731 C1672.303,574.582422 1672.24693,574.844296 1672.28346,575.101555 C1672.40433,575.164514 1672.53657,575.202643 1672.67239,575.213697 C1673.64656,575.405788 1674.64243,575.463495 1675.63224,575.38521 L1675.79045,577.364202 C1675.42789,577.397185 1675.0851,577.41038 1674.7489,577.41038 Z" id="Path" fill="#000000"></path>
                    <path d="M1732.69344,591.883403 C1727.66367,589.139202 1721.9681,586.032185 1718.19083,581.051723 L1717.20201,579.732395 C1715.69061,577.562055 1713.97068,575.544872 1712.06677,573.709664 L1713.38519,572.232017 C1715.39214,574.15141 1717.20293,576.266189 1718.79071,578.545 L1719.76634,579.864328 C1723.3063,584.481975 1728.8107,587.509832 1733.66248,590.161681 L1732.69344,591.883403 Z" id="Path" fill="#51B02B"></path>
                    <path d="M1731.82329,594.706765 C1731.3948,592.536471 1731.54642,589.996765 1733.17467,588.499328 C1734.09357,587.762958 1735.16584,587.242234 1736.31251,586.975504 C1738.10556,586.41479 1740.07,585.906849 1741.81032,586.599496 C1743.55063,587.292143 1744.64492,589.759286 1743.34627,591.118193 C1742.8255,591.665714 1741.93557,592.298992 1742.35087,592.932269 C1742.58968,593.185805 1742.90874,593.348938 1743.25399,593.394034 C1744.70105,593.897562 1745.58459,595.360979 1745.35686,596.877059 L1743.06941,596.982605 C1742.35746,598.961597 1744.09118,601.362773 1743.13533,603.262605 C1742.75192,603.94567 1742.14396,604.474796 1741.41479,604.760042 C1735.33028,607.438277 1732.65389,598.97479 1731.82329,594.706765 Z" id="Path" fill="#71D0FF"></path>
                    <path d="M1700.49764,534.763109 C1700.49764,534.763109 1721.98128,553.497563 1739.80632,545.416681 C1739.80632,545.416681 1731.19045,529.386849 1700.49764,534.763109 Z" id="Path" fill="#66AF37"></path>
                    <path d="M1518.1602,481.838277 C1515.09488,479.859286 1511.12643,477.596639 1506.99319,475.465924 L1507.9029,473.704622 C1512.08888,475.868319 1516.11006,478.16395 1519.22812,480.175924 L1518.1602,481.838277 Z" id="Path" fill="#FFBE71"></path>
                    <path d="M1516.61106,485.512605 C1515.06192,484.707815 1512.57669,483.322521 1510.17058,481.983403 C1508.14021,480.848782 1506.04393,479.681176 1504.60026,478.915966 L1505.52974,477.167857 C1506.9866,477.939664 1509.09607,479.146849 1511.13303,480.255084 C1513.52596,481.574412 1515.99799,482.966303 1517.52077,483.751303 L1516.61106,485.512605 Z" id="Path" fill="#FFBE71"></path>
                    <path d="M1515.03555,489.609118 C1514.48181,489.325462 1511.54833,487.880798 1508.61484,486.429538 L1502.18096,483.249958 L1503.07089,481.482059 L1509.49159,484.655042 C1512.43167,486.106303 1515.37174,487.557563 1515.92548,487.841218 L1515.03555,489.609118 Z" id="Path" fill="#FFBE71"></path>
                    <polygon id="Rectangle" fill="#FFBE71" transform="translate(1508.435971, 490.166500) rotate(-66.450000) translate(-1508.435971, -490.166500) " points="1507.44789 484.99468 1509.42666 484.994181 1509.42405 495.33832 1507.44528 495.338819"></polygon>
                    <path d="M1124.07139,436.888782 C1122.70011,438.366025 1121.44808,439.949788 1120.32708,441.625168 C1119.62011,442.563835 1119.12324,443.643736 1118.87023,444.791555 C1118.62542,445.961485 1119.04034,447.171638 1119.95133,447.944748 C1121.02584,448.736345 1122.50247,448.531849 1123.80771,448.29437 L1132.54883,446.711176 C1133.19474,446.540934 1133.87066,446.518388 1134.52646,446.64521 C1135.79873,446.988235 1136.54364,448.393319 1136.55682,449.70605 C1136.47825,451.023445 1136.11622,452.308308 1135.4955,453.472731 C1137.4374,453.128329 1139.30176,452.437928 1140.9999,451.43437 C1141.5705,451.143927 1142.06327,450.720935 1142.43698,450.200798 C1143.19507,449.013403 1142.70066,447.357647 1141.69207,446.368151 C1140.6098,445.461622 1139.33645,444.812103 1137.96753,444.468319 C1139.4817,444.4076 1140.96907,444.04895 1142.34469,443.412857 C1143.66311,442.687227 1144.73762,441.26895 1144.57282,439.764916 C1144.38165,438.01021 1142.63474,436.809622 1140.9142,436.466597 C1139.19366,436.123571 1137.39402,436.301681 1135.64052,436.064202 C1138.91858,434.963339 1141.17003,431.942691 1141.28995,428.484664 C1141.34865,428.051359 1141.20806,427.614768 1140.90761,427.297269 C1140.61661,427.114647 1140.27429,427.031324 1139.93198,427.05979 C1137.43357,427.013613 1134.61216,427.05979 1132.91799,428.926639 C1135.37025,422.33 1126.0688,420.614874 1125.1525,425.331471 C1124.74378,427.402815 1127.47291,428.51105 1127.64431,430.608782 C1127.90799,433.148487 1125.66668,435.180252 1124.07139,436.888782 Z" id="Path" fill="#71D0FF"></path>
                    <path d="M1214.98302,461.593193 C1214.49336,461.54144 1213.99832,461.597733 1213.53275,461.758109 C1212.85952,462.104661 1212.35189,462.705211 1212.12205,463.427059 C1210.14442,468.348151 1214.5809,473.882731 1213.29544,479.021513 C1214.80842,479.140365 1216.2523,478.367706 1216.99361,477.042521 C1217.70484,475.738563 1218.08514,474.279751 1218.10108,472.794286 C1217.84027,474.121171 1217.89674,475.490969 1218.26588,476.791849 C1218.66602,478.113296 1219.83103,479.05693 1221.20596,479.173235 C1221.76696,479.210159 1222.30233,478.933406 1222.59689,478.454202 C1222.71255,478.153974 1222.75985,477.831711 1222.73532,477.510882 L1222.73532,471.785 C1223.01219,473.170294 1224.46245,473.955294 1225.80065,474.423655 C1227.13885,474.892017 1228.62866,475.268025 1229.43949,476.402647 C1229.38162,474.095528 1228.77846,471.834936 1227.6794,469.806008 C1228.23313,470.828487 1232.04337,472.147815 1233.16402,472.563403 C1236.11728,463.275336 1220.85658,461.764706 1214.98302,461.593193 Z" id="Path" fill="#71D0FF"></path>
                    <path d="M1463.30735,567.812269 C1461.13329,566.67691 1458.82254,565.825581 1456.4318,565.27916 L1454.71785,564.797605 C1452.85888,564.250084 1450.98672,563.61021 1449.15412,562.891176 C1447.09211,562.071475 1445.0724,561.14899 1443.10257,560.127185 C1435.6439,556.252271 1429.00458,550.970312 1423.55041,544.572311 L1425.06,543.292563 C1430.35057,549.493683 1436.78805,554.614067 1444.01887,558.372479 C1445.92567,559.352329 1447.88173,560.233052 1449.87925,561.011134 C1451.65252,561.716975 1453.46535,562.330462 1455.27159,562.858193 L1456.95916,563.339748 C1459.51094,563.931021 1461.97663,564.846592 1464.29617,566.06416 L1463.30735,567.812269 Z" id="Path" fill="#51B02B"></path>
                    <path d="M1432.89141,552.026513 C1432.89141,552.026513 1442.26538,564.33584 1440.63713,584.640294 C1440.63713,584.640294 1427.50567,572.805924 1432.89141,552.026513 Z" id="Path" fill="#66AF37"></path>
                    <path d="M1470.43341,526.893319 L1462.81954,529.05042 C1462.81954,529.05042 1459.29936,527.731092 1458.50171,532.348739 C1458.29077,533.569118 1456.5966,534.875252 1455.79895,535.699832 C1453.15283,538.305435 1450.84101,541.230431 1448.9168,544.407395 C1446.86007,547.897017 1444.30233,550.891891 1441.8303,554.051681 C1440.89422,555.225882 1440.89422,556.235168 1440.68986,557.679832 C1440.38157,559.304922 1440.21395,560.953597 1440.18887,562.607521 C1440.18887,564.131345 1440.24819,565.800294 1441.26997,566.934916 C1442.29174,568.069538 1444.05183,568.34 1445.62735,568.326807 C1449.06842,568.293824 1453.14893,567.57479 1455.55505,565.114244 C1454.6717,564.744832 1453.41261,564.520546 1452.49631,564.157731 C1451.8371,563.880672 1451.76459,563.68937 1451.74481,562.779034 C1451.74481,562.462395 1451.59979,562.165546 1451.88325,562.027017 C1452.36447,561.782941 1453.20167,562.11937 1453.97953,562.376639 C1454.7574,562.633908 1455.95716,562.983529 1455.95716,562.983529 C1456.04757,562.172983 1455.95521,561.352466 1455.68689,560.582353 C1455.1589,559.357707 1454.49555,558.196061 1453.70926,557.119118 C1453.26309,556.56866 1452.89282,555.960733 1452.60838,555.311639 C1452.32245,554.658096 1452.30822,553.917548 1452.56883,553.253487 C1452.87359,552.69324 1453.30749,552.213813 1453.83451,551.855 C1455.9937,550.050956 1457.99407,548.064665 1459.81354,545.918025 L1465.3575,539.717185 L1473.88108,538.239538" id="Path" fill="#DBA258"></path>
                    <path d="M1507.77765,501.410504 C1507.66558,500.975126 1507.54692,500.539748 1507.43486,500.091176 C1507.00637,498.45521 1507.02615,497.023739 1506.11644,495.473529 C1504.6127,492.826284 1501.80916,491.185774 1498.76625,491.172521 C1493.89469,491.172521 1489.94602,495.130504 1489.94602,501.417101 L1489.94602,501.509454 L1484.47458,500.539748 L1489.00335,511.905756 L1486.51813,527.731092 L1502.88631,527.968571 L1500.82298,522.097563 C1500.10445,520.072395 1496.99957,514.696134 1500.3088,513.700042 C1501.3108,513.39 1502.3919,513.594496 1503.44664,513.634076 C1504.50137,513.673655 1505.67477,513.482353 1506.3142,512.651176 C1506.73204,511.98357 1506.92817,511.200822 1506.87453,510.414916 C1506.87453,509.610126 1506.53174,507.901597 1507.10525,507.222143 C1507.3257,507.0094 1507.59871,506.85914 1507.89631,506.786765 L1508.8192,506.470126 C1508.9342,506.443685 1509.03661,506.378469 1509.10925,506.28542 C1509.14895,506.172265 1509.14895,506.048954 1509.10925,505.935798 C1508.72032,504.372395 1508.18636,502.914538 1507.77765,501.410504 Z" id="Path" fill="#DBA258"></path>
                    <path d="M1489.86032,512.50605 C1489.49781,513.109843 1489.0784,513.677542 1488.60783,514.201387 C1488.99676,513.752815 1484.82396,509.029622 1484.44162,508.198445 C1483.23149,505.743504 1482.68382,503.014608 1482.85292,500.282479 C1483.40007,492.742521 1488.93084,493.402185 1488.93084,493.402185 C1488.93084,493.402185 1489.36592,490.189622 1493.43983,489.068193 C1497.51375,487.946765 1506.14281,489.147353 1508.21932,494.906218 C1508.72032,496.284916 1505.93186,497.036933 1505.16718,497.228235 C1503.07748,497.742773 1500.83617,497.294202 1498.84535,498.151765 C1496.83769,499.007943 1495.35358,500.764658 1494.84395,502.888151 C1494.75886,503.676159 1494.57275,504.449926 1494.29021,505.190378 C1493.92765,505.896218 1493.09045,506.456933 1492.35873,506.160084 C1492.27445,505.151602 1491.98029,504.171912 1491.49517,503.28395 C1490.98271,502.385712 1489.99306,501.869917 1488.9638,501.964622 C1487.81343,502.270907 1487.0402,503.348645 1487.11801,504.537311 C1487.23209,505.695649 1487.7725,506.77016 1488.63419,507.551975 C1489.31767,508.094289 1489.88679,508.766946 1490.30859,509.530966 C1490.64619,510.537074 1490.47937,511.644282 1489.86032,512.50605 L1489.86032,512.50605 Z" id="Path" fill="#000000"></path>
                    <path d="M1515.68817,543.035294 L1515.68817,543.035294 C1518.33084,543.599576 1520.02349,546.191849 1519.47862,548.840336 L1517.50099,560.575756 C1517.28235,561.662989 1517.4356,562.792215 1517.93607,563.781723 L1523.6712,572.18584 C1524.30308,573.428976 1524.37737,574.882233 1523.87555,576.183403 C1522.55713,579.541092 1519.92029,585.966218 1518.28545,587.397689 C1516.02436,589.376681 1512.86675,581.70479 1513.81601,576.440672 C1514.11925,574.778319 1509.01037,564.012605 1509.01037,564.012605 C1507.31677,562.863911 1506.51082,560.785909 1506.9866,558.794664 L1509.87393,546.722815 C1510.48598,544.114914 1513.07016,542.47597 1515.68817,543.035294 Z" id="Path" fill="#DBA258"></path>
                    <path d="M1485.51613,602.715084 C1485.32496,603.486891 1480.33474,609.351303 1480.33474,609.351303 L1441.61276,611.330294 L1442.38403,604.733655 L1470.80916,594.581429 L1485.51613,602.715084 Z" id="Path" fill="#DBA258"></path>
                    <polygon id="Path" fill="#DBA258" points="1510.76387 600.538193 1524.55454 631.021261 1529.90073 630.546303 1523.90851 596.487857 1511.53514 593.756849"></polygon>
                    <polyline id="Path" fill="#FFFEFD" points="1476.18831 567.891429 1466.18151 595.333445 1487.07187 604.826008 1495.27244 587.516429 1505.52315 603.414328 1524.62046 596.487857 1511.42308 567.383487 1474.89626 567.766092"></polyline>
                    <path d="M1463.84131,527.368277 L1487.98158,521.840294 L1488.17934,522.335042 C1489.22808,524.974633 1491.79003,526.69794 1494.62854,526.673114 C1497.46704,526.648287 1499.9985,524.880431 1501.00097,522.222899 L1501.00097,522.222899 L1506.59107,523.278361 C1513.75894,524.632048 1519.23335,530.462117 1520.13783,537.70521 L1521.9177,551.93416 L1511.91749,552.270588 L1511.66699,568.194874 L1474.86989,568.082731 L1475.66095,542.837395 L1468.50193,544.427185 L1463.84131,527.368277 Z" id="Path" fill="#E6FFFD"></path>
                    <path d="M1465.5223,564.988908 C1464.99261,564.93456 1464.45744,564.995314 1463.95338,565.167017 C1460.65733,566.545714 1462.23943,574.765126 1463.72925,576.975 C1465.04767,578.953992 1467.3549,580.101807 1469.04248,581.816933 C1470.16093,583.089941 1471.19586,584.434069 1472.14076,585.840882 C1472.28579,586.032185 1472.47037,586.243277 1472.71428,586.230084 C1472.92915,586.186207 1473.11302,586.048206 1473.21528,585.854076 C1475.03954,583.152407 1474.87056,579.571762 1472.79997,577.05416 L1479.39207,578.452647 C1480.27541,578.64395 1481.56087,578.558193 1481.63998,577.66105 C1481.62414,577.268252 1481.46461,576.894975 1481.19172,576.612185 C1480.03151,575.094958 1478.80098,573.632703 1477.50014,572.22542 C1479.98425,572.806937 1482.59369,572.493963 1484.87011,571.341471 C1485.12845,571.24778 1485.33933,571.055725 1485.4568,570.807143 C1485.63479,570.305798 1485.09424,569.87042 1484.63279,569.619748 C1478.71968,566.473151 1472.16054,565.213193 1465.5223,564.988908 Z" id="Path" fill="#71D0FF"></path>
                    <polygon id="Rectangle" fill="#7FCFF7" transform="translate(1511.402771, 544.327584) rotate(-3.680000) translate(-1511.402771, -544.327584) " points="1510.4143 536.372104 1512.39194 536.372017 1512.39124 552.283064 1510.4136 552.283151"></polygon>
                    <path d="M1404.77611,380.269832 C1405.29947,380.270956 1405.81758,380.165467 1406.29889,379.95979 C1407.06786,379.529542 1407.61521,378.78962 1407.80189,377.928025 C1407.95917,377.260345 1407.99269,376.56945 1407.90077,375.889664 C1407.92853,375.272836 1408.27588,374.715195 1408.81707,374.418613 C1409.40677,374.119826 1409.97116,373.773456 1410.50465,373.382941 C1409.91367,372.74139 1409.48427,371.967939 1409.25215,371.126891 C1409.14008,370.698109 1409.07416,370.262731 1408.99506,369.807563 C1408.92367,369.294117 1408.77707,368.793998 1408.55998,368.323319 C1408.33585,367.887941 1408.4611,367.960504 1408.42154,367.960504 L1405.35622,367.960504 L1402.15905,367.960504 L1393.89256,367.960504 C1392.82947,367.960504 1391.96767,368.822902 1391.96767,369.886723 L1391.96767,371.641429 L1391.96767,371.641429 C1392.1553,374.542151 1394.56069,376.799116 1397.46548,376.8 C1397.79064,376.799177 1398.11504,376.768261 1398.43452,376.707647 C1397.17146,378.864348 1395.07493,380.403815 1392.64006,380.962479 L1388.86279,394.690084 C1390.4301,396.590739 1392.70873,397.763791 1395.16532,397.934661 C1397.62191,398.105531 1400.04081,397.259219 1401.85581,395.593824 L1402.18542,395.283782 C1402.04699,392.829832 1399.87159,381.516597 1403.04898,380.447941 C1403.61444,380.313311 1404.1951,380.253431 1404.77611,380.269832 Z" id="Path" fill="#DBA258"></path>
                    <path d="M1417.50546,376.846176 C1414.6032,376.841819 1412.2017,374.585793 1412.01424,371.687605 L1412.01424,371.687605 L1412.01424,368.712521 L1412.01424,368.712521 C1412.01424,368.633361 1412.01424,368.554202 1412.01424,368.475042 C1412.01424,360.29965 1405.39133,353.672136 1397.22157,353.672136 C1396.69958,353.670786 1396.17795,353.699419 1395.65924,353.757941 C1383.97145,354.509958 1381.53238,367.017185 1381.53238,371.931681 C1381.53238,376.999404 1385.63775,381.107605 1390.70198,381.107605 L1395.08573,381.107605 C1398.1073,381.03624 1400.87944,379.413679 1402.42273,376.813193 L1402.42273,376.76042 C1402.10326,376.821034 1401.77886,376.85195 1401.4537,376.852773 C1398.5489,376.851889 1396.14352,374.594924 1395.95589,371.694202 L1395.95589,371.694202 L1395.95589,369.939496 C1395.95589,368.875675 1396.81769,368.013277 1397.88078,368.013277 L1402.19201,368.013277 L1405.38918,368.013277 L1407.71619,368.013277 C1407.95351,368.013277 1408.44132,368.013277 1408.44132,368.013277 C1408.48128,368.129901 1408.53204,368.242534 1408.59294,368.349706 C1408.81003,368.820385 1408.95663,369.320503 1409.02802,369.83395 C1409.10712,370.269328 1409.17304,370.704706 1409.28511,371.153277 C1409.51724,371.994326 1409.94663,372.767776 1410.53761,373.409328 C1410.00412,373.799842 1409.43973,374.146212 1408.85003,374.445 C1408.30884,374.741582 1407.96149,375.299222 1407.93373,375.91605 C1408.02565,376.595837 1407.99213,377.286731 1407.83485,377.954412 C1407.64817,378.816006 1407.10082,379.555929 1406.33185,379.986176 L1406.33185,379.986176 L1406.46369,380.065336 C1410.72618,382.309484 1415.99727,380.868302 1418.52723,376.767017 C1418.19012,376.827388 1417.84783,376.853906 1417.50546,376.846176 L1417.50546,376.846176 Z" id="Path" fill="#000000"></path>
                    <path d="M1407.88758,376.05458 L1405.25075,376.05458 C1405.70373,377.074221 1406.78713,377.659662 1407.88758,377.479454 L1407.88758,376.05458 Z" id="Path" fill="#FFFEFD"></path>
                    <ellipse id="Oval" fill="#000000" cx="1404.27511" cy="370.764076" rx="1" ry="1"></ellipse>
                    <path d="M1506.9009,508.917479 L1503.55211,508.917479 C1503.55211,508.917479 1504.27065,510.949244 1506.94045,510.738151 L1506.9009,508.917479 Z" id="Path" fill="#FFFEFD"></path>
                    <ellipse id="Oval" fill="#000000" cx="1502.84676" cy="503.996387" rx="1" ry="1.14121849"></ellipse>
                    <path d="M1443.81452,604.252101 L1433.16828,602.662311 L1431.80372,631.548992 C1431.79462,631.699398 1431.86508,631.843545 1431.98932,631.928681 C1432.11356,632.013817 1432.27334,632.027446 1432.41019,631.96458 L1439.12754,629.60958 L1445.60098,610.941092 L1444.3287,604.575336" id="Path" fill="#000000"></path>
                    <path d="M1523.53276,629.451261 L1524.13264,640.724916 L1553.13787,633.217941 C1553.28287,633.181603 1553.39847,633.072278 1553.4429,632.92946 C1553.48733,632.786642 1553.45418,632.630976 1553.35541,632.518697 L1550.01981,626.542143 L1529.45906,625.882479 L1523.72393,628.916933" id="Path" fill="#000000"></path>
                </g>
            </g>
        </g>
    </g>
</svg>