
<svg width="296px" height="144px" viewBox="0 0 296 144" version="1.1" xmlns="http://www.w3.org/2000/svg" xmlns:xlink="http://www.w3.org/1999/xlink">
    <defs>
        <polygon id="path-1" points="0.000108672062 0.238206236 200.900981 0.238206236 200.900981 68.3688772 0.000108672062 68.3688772"></polygon>
        <polygon id="path-3" points="0.0618911046 0.356998484 40.787856 0.356998484 40.787856 55.8179474 0.0618911046 55.8179474"></polygon>
    </defs>
    <g id="Design" stroke="none" stroke-width="1" fill="none" fill-rule="evenodd">
        <g id="01---Homepage---Tablet" transform="translate(-442.000000, -127.000000)">
            <g id="Dogs" transform="translate(442.000000, 127.000000)">
                <g id="Group-45" transform="translate(90.000000, 0.000000)">
                    <path d="M141.143629,112.687243 C140.586841,115.557709 142.425927,118.316228 144.350241,120.536375 C145.972582,122.407861 147.725144,124.168682 149.591918,125.803027 C151.546083,127.514711 153.842453,129.620773 153.387765,132.160952 C153.308595,132.604042 153.126893,133.053967 152.766516,133.329563 C152.471034,133.555594 152.09292,133.638486 151.732977,133.737188 C149.049407,134.472964 146.749143,136.463661 145.656767,138.993158 C148.824443,139.045714 155.76893,138.778236 155.76893,138.778236 C155.76893,138.778236 156.688257,137.155427 156.890725,136.287622 C157.366179,134.25676 157.841201,132.226326 158.31579,130.195465 C158.61257,128.926443 158.948287,127.586494 159.882323,126.667414 C160.237075,126.317899 160.678352,126.029058 160.892069,125.581696 C161.322962,124.681417 160.650664,123.667909 160.014706,122.895815 C157.562158,119.917246 155.10961,116.938251 152.657495,113.96011" id="Fill-1" fill="#BF8B4C"></path>
                    <g id="Group-5" transform="translate(0.000000, 70.358025)">
                        <mask id="mask-2" fill="white">
                            <use xlink:href="#path-1"></use>
                        </mask>
                        <g id="Clip-4"></g>
                        <path d="M46.5738158,60.3598125 C46.2831063,61.9830681 46.4489842,63.6186115 46.5069568,65.25246 C46.5717,67.0642692 46.4557547,67.5303567 44.5354642,67.5824737 C43.5224242,67.6095915 36.2123716,68.0129691 35.8763842,67.4714601 C35.5196621,66.8964777 35.7523989,66.1168404 36.1865589,65.5977884 C36.6202958,65.0791602 37.2203337,64.7312894 37.7319316,64.28893 C39.7085021,62.5809313 40.1502789,59.574667 39.4275253,57.0624554 C38.7047716,54.5502439 37.0222958,52.436749 35.2729611,50.4957064 C31.6397274,46.463626 28.1042432,43.064577 27.8922411,37.3473784 C27.7983,34.8211843 28.1630621,32.3021933 28.5269779,29.8005746 C29.1249,25.6871407 28.0750453,22.2135178 24.2729716,19.992399 C21.4585484,18.3488051 18.1528389,17.8378037 14.9956579,17.0293538 C7.87221789,15.2061043 -2.14604526,11.1757186 0.406866316,1.80905502 C5.91680526,2.50013565 11.4267442,3.19121628 16.9366832,3.88187319 C17.8909042,4.00178479 18.8603589,4.12127267 19.8103484,3.97254839 C20.9012495,3.80179089 21.9024411,3.28867093 22.9006705,2.81707514 C25.7049379,1.49296296 29.9233989,-0.354438348 33.1118937,0.422656607 C36.0837316,1.14763451 37.6608411,4.32762231 38.8583779,6.83602042 C40.0330642,9.29696235 41.4040958,11.6286709 42.8601821,13.9307194 C44.2604116,16.1433638 44.0187884,18.5428669 45.1245,20.8254245 C46.1117274,22.8651928 48.3388074,23.9490581 50.4393632,24.7939476 C60.7978453,28.9607697 119.521582,28.0497805 130.654866,27.4078509 C140.239816,26.8557491 148.338635,27.1421811 157.791136,29.1277138 C159.671649,29.5230407 164.098304,31.6132312 165.882338,32.3335482 C171.811203,34.7288142 179.687018,43.5789681 184.00746,48.2983158 C189.342212,54.1252568 194.903353,59.7585597 200.901193,64.8990809 C196.363671,65.0833973 192.300932,62.2809404 188.698588,59.5128045 C185.227001,56.8446654 170.100799,42.2290093 168.724266,40.7570203 C167.347734,39.285455 165.430405,38.1244734 163.426329,38.318959 C161.751471,42.2497714 163.284148,47.2801265 166.864487,49.6054793 C167.729422,50.1673266 168.728921,50.6194315 169.28622,51.4880491 C169.628555,52.0210837 169.764812,52.657505 169.880757,53.2803673 C170.802395,58.232335 170.82186,63.350823 169.937883,68.3095702 C167.55762,68.0549169 165.148582,68.0735604 162.772974,68.365077 C161.464146,68.5252416 164.749544,63.5698842 164.814711,63.4766667 C165.779511,62.1063695 166.495917,60.1305822 165.199361,58.4611416 C164.699188,57.8166697 163.934119,57.4365966 163.168626,57.1565203 C159.985633,55.9942676 156.235184,56.1421445 153.581561,54.0333105 C151.746748,52.5757278 150.725245,50.2274943 148.755022,48.9597363 C147.103014,47.8962094 145.038849,47.7572306 143.075397,47.7161302 C136.030241,47.5699482 113.759018,44.4539415 96.9511863,50.867729 C84.5344642,55.6057202 71.6209547,59.5509389 62.7794937,60.7962399 C57.27294,61.5720637 49.0577526,61.313597 46.5738158,60.3598125" id="Fill-3" fill="#DBA258" mask="url(#mask-2)"></path>
                    </g>
                    <path d="M33.6967986,94.1371561 C33.6805807,94.5474484 33.675886,94.9943436 33.9247032,95.3207899 C34.1031004,95.5548778 34.3839267,95.6863927 34.6617654,95.7855608 C37.7884117,96.9002451 41.1894824,94.8679361 43.3998156,92.3968186 C44.3545395,91.3298032 45.2081148,90.1478719 45.7147117,88.8101657 C46.7936309,85.9611026 46.1581441,82.6723798 44.6264032,80.0378264 C43.0950892,77.403273 40.7562929,75.3305306 38.3120801,73.5042191 C36.4931112,72.1448065 35.3501739,71.2084548 34.5094022,73.3003497 C33.7932526,75.0819718 34.3117996,78.4141073 34.2366849,80.3421407 C34.0565806,84.9409048 33.8764762,89.5388176 33.6967986,94.1371561" id="Fill-6" fill="#BF8B4C"></path>
                    <path d="M47.1885973,130.99177 C46.5506151,128.042362 48.4427769,125.024996 47.8488829,122.069642 C47.544415,120.55119 46.605077,119.175876 45.6818182,117.835391" id="Stroke-8" stroke="#333333" stroke-width="2"></path>
                    <path d="M27.4086023,77.7720736 C27.4268672,78.7201072 26.9308307,79.498092 26.3002107,79.5101351 C25.6700713,79.5226599 25.1442342,78.7644258 25.1254886,77.816874 C25.1072237,76.8688405 25.6032602,76.0908556 26.2338802,76.0783308 C26.8645002,76.0662877 27.3903374,76.8245218 27.4086023,77.7720736" id="Fill-10" fill="#333333"></path>
                    <path d="M63.8017582,40.9149842 C63.3398685,41.2502597 62.9269096,41.711369 62.5021398,42.1851463 C61.3029138,43.5241369 60.2867565,45.0278095 59.4954276,46.6425369 C59.9311647,46.5943991 60.3669017,46.5466835 60.8030606,46.498968 C60.9237003,46.4850334 61.0599472,46.4765882 61.1523251,46.5547065 C61.2603103,46.6467595 61.2577794,46.8114414 61.2459685,46.9528989 C61.113518,48.5819831 60.8524132,50.2630055 60.8612713,51.8937788 C62.3882492,51.6813813 61.7538363,52.8341547 61.948294,53.8733399 C62.8248298,53.7437056 63.7186602,53.4088524 64.5791671,53.1702748 C65.3671214,52.9519657 64.3134223,59.410875 64.1244483,60.1101397 C63.3162467,63.0993277 62.6206704,65.9588814 62.5805978,69.0827707 C63.050502,69.0350552 63.5204062,68.9869174 63.9898886,68.9392019 C63.0218184,71.2363035 62.7278119,73.8129421 63.1530035,76.2696586 C61.9487158,76.5348387 61.2957429,77.8147128 60.843555,78.9632636 C59.9277901,81.2895013 59.040287,83.722571 58.5235611,86.1729535 C58.9458,85.7920738 59.7261616,86.0969465 59.8560812,86.6403968 C59.9699719,87.1154408 59.4705404,87.6643806 59.2988609,88.072285 C59.0989196,88.5477513 58.3383834,92.9582708 58.2443182,92.9798062 C58.6636044,92.8852196 59.0938578,92.842149 59.5232676,92.8501719 C59.6637327,92.8527055 59.8168523,92.8657956 59.9201974,92.9616489 C60.0353535,93.0676365 60.0522262,93.2416082 60.0496953,93.3982672 C60.0290262,94.6219805 59.2697555,95.7426621 59.2495083,96.9663754 C59.2473992,97.0846086 59.2545701,97.2091757 59.3199517,97.3071403 C59.5675584,97.6778857 60.1230915,97.2492905 60.5685303,97.2543576 C61.1506379,97.2606915 61.3813718,97.9874033 61.7403381,98.4464014 C62.4152455,99.3099258 63.9666887,99.0903499 64.9271662,99.0177209 C66.24661,98.9172227 67.5993774,98.8331927 68.9310539,98.6938465 C68.68176,97.5596526 67.4909704,96.8700998 67.0645133,95.7907998 C68.0945906,95.8596284 69.1191843,96.0074199 70.1269053,96.2320629 C69.3237656,94.519371 67.4622868,93.5975745 66.2191919,92.1728648 C65.8585383,91.7594709 65.5417536,91.2840047 65.441783,90.7443547 C65.3793541,90.4099237 65.3898995,89.7697755 65.6813751,89.5231749 C66.1479048,89.1287828 66.2018974,89.5438657 66.5600201,89.906166 C66.7359178,90.0835157 68.6075202,91.1564818 68.6016147,91.0918758 C68.4653678,89.6464752 68.3502118,88.0963539 69.0664572,86.834637 C69.3153292,86.396752 69.7451608,85.9761798 70.2450141,86.0365631 C70.736431,86.096102 71.2928077,86.582547 71.6340577,86.2236249 C71.7850682,86.0648546 71.7795846,85.8190985 71.7757883,85.5995226 C71.7559629,84.412546 72.0816056,83.2213468 72.7029422,82.210031 C72.7020986,82.21172 74.5391119,85.1553037 74.7652059,85.5572965 C75.5472548,86.9494921 76.1154424,88.0921313 76.3318345,89.7119257 C76.5528667,91.3655011 76.6093902,93.0887496 77.3412428,94.5873551 C77.8208488,94.7229009 78.4063309,94.167205 78.7737336,94.5037473 C78.8800315,94.6017119 78.9239005,94.7482366 78.9576458,94.8884274 C79.2600887,96.1488775 79.1461981,97.5351614 79.7772364,98.667244 C79.8645526,98.8247475 79.9830832,98.9864736 80.1589809,99.0236326 C80.3353004,99.0607916 80.5074018,98.9602934 80.6676923,98.8779524 C81.313916,98.546055 82.0837322,98.4645586 82.7847922,98.6533094 C83.3930524,98.8171468 83.9304474,99.1693127 84.5020095,99.4340706 C85.2777311,99.7938373 86.1260053,99.9939891 86.9806067,100.020169 C87.0780464,100.022703 87.1839225,100.021014 87.2602714,99.9606305 C87.3416821,99.896869 87.3665693,99.7870811 87.3914565,99.6870051 C87.604896,98.8277033 88.2030326,98.0727001 88.9897214,97.6690182 C89.078303,97.623414 89.1778518,97.5731649 89.2111754,97.4790006 C89.2622153,97.3366986 89.1339829,97.1981969 89.0175614,97.1019213 C87.4488236,95.807268 85.6219339,94.6515388 84.7732379,92.8020342 C84.6989981,92.6390413 84.6348819,92.4397339 84.7318998,92.2894089 C84.8310268,92.136128 85.0423572,92.115015 85.225004,92.1095256 C86.0471255,92.0858789 86.8696688,92.0622323 87.6917903,92.0381634 C88.165069,92.024651 88.7767038,91.8924832 88.8319618,91.4216619 C88.8766744,91.0416267 88.5054754,90.7620897 88.2005017,90.5311127 C87.5243289,90.0197542 86.9759667,89.340758 86.6191094,88.5713979 C87.3615075,88.4223396 88.123731,88.3729351 88.8792054,88.4257177 C88.9433215,87.5191227 87.3518057,87.2302959 87.3378857,86.3215895 C88.870769,86.4178651 90.4095577,86.6602431 91.9369574,86.564812 C91.720987,85.3014061 91.6184855,83.7424173 92.6671227,83.0064158 C94.7859099,81.5187892 97.1388056,85.6269696 99.6870025,85.1738832 C101.108526,84.921371 101.959331,83.3100217 103.363982,82.976013 C105.428355,82.4849231 107.034212,84.9125035 109.113771,85.3343425 C111.475524,85.8136091 113.466923,83.6528979 114.908272,81.7197855 C114.588956,82.0394374 115.308998,85.0944981 115.372271,85.6290809 C115.542263,87.0613914 115.736299,88.4937018 115.882669,89.9285458 C116.14504,92.5013841 115.554074,95.0754892 115.001493,97.5807656 C114.957624,97.7796507 114.934424,98.0317407 115.103995,98.1432177 C115.179922,98.1934668 115.27694,98.1993785 115.367209,98.1875552 C115.791557,98.1313944 116.084298,97.7471366 116.448326,97.5212268 C116.53986,97.4642215 116.640253,97.416506 116.747816,97.408483 C117.096659,97.3835696 117.329924,97.7788062 117.361982,98.127594 C117.383916,98.3674385 117.255262,98.9860513 117.446767,99.1701573 C117.782533,99.4919204 117.661894,99.0772598 117.921311,99.1705795 C118.57555,99.4062014 119.419605,99.5071218 120.118978,99.7338761 C121.187019,100.079708 122.332674,100.184851 123.44585,100.039171 C123.253079,100.064085 123.865558,98.919334 124.006866,98.8201026 C124.456101,98.5042512 124.904915,98.5849031 125.418688,98.6199508 C125.30775,98.3564597 125.422906,98.0410305 125.623691,97.8375005 C125.824476,97.6335483 126.094861,97.5174264 126.357653,97.4055272 C125.385786,96.6661476 124.489425,95.8275366 123.686285,94.9070069 C124.132568,94.6021342 124.971984,95.0501535 125.176987,94.5497738 C125.231823,94.4163392 125.203139,94.2655919 125.173612,94.1245566 C124.964391,93.1297089 123.525151,90.9926444 124.364567,90.1907701 C125.833756,91.6640399 126.254729,94.5637084 126.176693,96.5576264 C126.474496,96.2041937 126.934277,95.9922185 127.396588,95.9955966 C127.342596,96.7210416 127.655584,97.40046 127.852151,98.0849457 C128.077823,98.8716185 127.918376,98.9421362 128.964061,99.0274329 C130.316828,99.1380654 131.826933,98.5207193 133.074668,99.2921908 C133.54415,99.5827066 134.029662,100.07633 134.547653,99.885468 C135.112466,99.6777154 135.180801,98.8032122 135.739708,98.5798359 C135.888188,98.5207193 136.052275,98.5177635 136.212143,98.5152299 C136.831371,98.507207 137.45102,98.4983395 138.070248,98.4898943 C137.252766,97.5524741 136.531459,96.7915592 135.94682,95.6974801 C136.272885,95.7836214 136.516274,95.3191339 136.379183,95.0104609 C136.241249,94.7017879 135.908013,94.540484 135.606836,94.38847 C133.766448,93.4611841 133.022784,92.2982764 131.910453,90.6759484 C131.54769,90.1468549 131.167211,89.5387986 131.292913,88.909207 C131.67761,88.9260974 132.062307,88.9425656 132.447004,88.959456 C132.350408,87.0567465 130.912012,85.6138795 130.259039,83.9058325 C129.893745,82.9494105 130.092421,82.5098365 130.282661,81.5825506 C130.503271,80.5078955 130.393599,79.2862935 130.138399,78.2293734 C131.950525,79.1950851 133.466958,80.7080474 134.437981,82.518704 C136.131155,79.4475973 136.437816,75.643445 135.257571,72.3405169 C136.33911,72.4384815 137.421071,72.5368684 138.50261,72.634833 C138.018786,72.5909179 136.918265,69.4197353 136.730135,68.9392019 C136.257278,67.7332235 135.967911,66.3980332 136.051009,65.0890231 C137.222817,65.6582313 138.519061,65.8668284 139.56812,64.8956274 C140.27382,64.2423891 140.370416,63.1694231 140.853397,62.337146 C141.336799,61.5057134 142.765494,61.0652948 143.143863,61.9495101 C142.940548,60.5328233 142.737232,59.1157143 142.534338,57.698183 C143.886683,57.9363384 145.239029,58.1740715 146.591796,58.4122269 C145.997456,56.4596905 147.99012,54.2331065 149.993751,54.6106082 C149.663046,53.3151104 149.110466,52.0770402 148.368068,50.9656484 C149.261477,50.420509 150.154463,49.8753696 151.047872,49.3302302 C148.94427,48.7065502 148.312388,45.4365585 150.031715,44.0730767 C149.196939,43.5346935 149.254727,42.2049925 149.888719,41.4394328 C150.522288,40.6747175 151.519042,40.3322635 152.463068,40.024435 C151.369718,39.512232 150.27679,39.000029 149.18344,38.4878261 C150.001766,37.1826163 150.819669,35.8778288 151.637994,34.5730413 C150.408397,35.112269 148.762889,34.8563786 148.03652,33.7264073 C147.310151,32.596436 148.072374,30.7308854 149.414596,30.7207511 C147.984214,30.7401752 146.553833,30.7591769 145.123451,30.7781787 C144.453184,26.4390213 142.909755,22.2362542 140.612117,18.4954411 C140.385602,18.1272292 140.073879,17.7193248 139.64236,17.7328372 C139.326841,17.7421269 139.070376,17.9802823 138.854827,18.2104147 C135.926151,21.3444383 134.679682,25.9690444 135.635941,30.1523874 C134.79526,30.2815994 134.01996,30.7887352 133.563976,31.5070017 C131.950525,30.2199492 129.828364,29.5903576 127.774958,29.7888204 C125.796214,27.081703 123.361486,24.7090166 120.60449,22.8020844 C117.212237,26.4968711 117.46364,32.9393122 121.13387,36.3587844 C119.261846,37.023846 117.641647,38.372971 116.647845,40.0949527 C117.284789,40.46232 117.956744,40.5877316 118.681004,40.6232016 C119.074981,40.6422034 119.717408,40.4728766 119.133192,41.17003 C118.025922,42.4925525 116.746551,43.6706616 115.33726,44.6650871 C116.455497,45.3850426 117.759333,45.8136379 119.08637,45.8959788 C118.7312,47.2708617 117.005125,47.7471725 116.15221,48.882211 C115.697492,49.4877337 115.513579,50.2891857 115.658263,51.0323656 C114.235052,50.607993 112.811841,50.1831981 111.388208,49.7584032 C110.975249,49.6351029 110.542887,49.5109581 110.118961,49.5894987 C109.395544,49.7229333 108.869539,50.523963 109.033625,51.2422295 C107.426924,50.8537491 105.820645,50.4652687 104.214365,50.0767883 C103.864257,49.992336 103.415444,49.9433537 103.218877,50.2456928 C103.114688,50.4057298 103.12439,50.6130601 103.057743,50.792099 C102.845569,51.3646853 102.042851,51.3743973 101.448932,51.2325175 C97.9238072,50.3922175 94.9938657,48.0060187 91.7100198,46.4719433 C91.1409885,46.2059186 90.3251943,46.0323692 90.0020824,46.571597 C90.5867209,47.093512 91.1709375,47.615427 91.755576,48.137342 C91.8525939,48.2247501 91.9593137,48.3362271 91.9356919,48.4650168 C91.8956193,48.6795255 91.5843183,48.6651686 91.3780497,48.5942287 C87.1151663,47.1230703 82.8008212,45.1177512 78.3156402,45.5826609 C78.8024172,46.1586254 79.2896159,46.7341676 79.7768146,47.3105543 C79.9290906,47.4908599 80.0788356,47.7771531 79.9029379,47.9355011 C79.8084509,48.0203756 79.6654549,48.0131971 79.5393316,48.0005293 C76.5170122,47.7074799 73.3470569,47.5132397 70.9751794,45.3744861 C69.3241874,43.8851704 68.2970628,41.0982456 65.9694762,40.4906115 C65.0785985,40.2579455 64.399473,40.4813218 63.8017582,40.9149842" id="Fill-12" fill="#9E7343"></path>
                    <path d="M132.584692,57.2504919 C132.692561,56.275174 133.762738,55.5731019 134.619205,55.9165115 C135.639909,56.3261624 135.939996,57.7220263 135.917287,58.893018 C135.886062,60.5128825 135.531228,62.1092139 135.478105,63.7286426 C135.424981,65.3480713 135.729124,67.0882163 136.792408,68.237418 C137.855691,69.3870555 139.833431,69.6236943 140.816016,68.3938698 C141.368745,67.702257 141.499729,66.7408846 141.590972,65.8344229 C141.746693,64.2925664 141.848074,62.7040794 141.441334,61.2162619 C141.11367,60.0173791 140.462805,58.9113215 140.355746,57.6671156 C140.248688,56.4233456 141.025266,54.9377071 142.184659,55.0292249 C140.886172,53.4106678 138.86058,52.4989765 136.876351,52.6397395 C134.891717,52.7805026 132.995082,53.9711052 131.90625,55.7587523" id="Fill-14" fill="#FFC6C0"></path>
                    <path d="M119.647303,57.4902642 C120.822142,56.7175227 122.111517,56.1202508 123.459845,55.7237568 C123.101077,57.443866 122.748625,59.2736438 123.357941,60.9216248 C123.451002,61.1730189 123.616069,61.4535174 123.883882,61.467015 C124.119271,61.4788255 124.302444,61.2763605 124.454879,61.0962509 C124.935763,60.5285052 125.475599,60.010954 126.063019,59.554564 C126.25293,59.4065115 126.503478,59.2588807 126.718655,59.3664403 C126.855509,59.435194 126.927515,59.5874646 126.978888,59.7312991 C127.371343,60.8347336 127.252175,62.2701264 128.223206,62.9218107 C130.011151,61.2704552 131.518651,59.3149804 132.661908,57.1650548 C133.047205,56.4403986 133.398815,55.6828419 133.948757,55.0741814 C135.61206,53.2347022 138.634638,53.3194844 140.819671,54.4891418 C143.004703,55.6583774 144.605263,57.6513926 146.330887,59.4322414 C146.230668,58.7118033 146.130869,57.9757585 146.264776,57.2608038 C146.399103,56.546271 146.810929,55.842705 147.475829,55.5508179 C148.85279,54.947219 150.412084,56.3214504 151.879159,55.9937101 C151.635348,55.0429681 151.391538,54.0918042 151.147727,53.1406403 C151.097617,52.9445023 151.04835,52.7281178 151.135515,52.5446338 C151.221839,52.3636807 151.419329,52.2641354 151.609662,52.2017087 C152.471632,51.9191012 153.414029,52.1283151 154.313055,52.0089451 C154.455383,51.989964 154.611186,51.953689 154.694141,51.8360062 C154.843206,51.6229961 154.649926,51.3412323 154.460436,51.1636536 C153.465402,50.2314708 152.217294,49.4827719 151.63619,48.248157 C151.386485,47.7175299 151.262684,47.1016987 150.842437,46.6929724 C150.540095,46.3989763 150.124901,46.2559854 149.719813,46.1399898 C146.680812,45.2685465 143.352523,45.446547 140.423847,46.6372945 C140.023391,45.3119921 141.927556,44.3135864 141.981456,42.9300753 C142.015564,42.060741 141.315714,41.3656111 140.740506,40.7139267 C139.437656,39.2380409 138.544525,37.4023579 138.187021,35.4650206 C136.942281,36.4132318 135.847449,37.5580029 134.955582,38.8449213 C134.48354,38.5256171 134.011499,38.2067346 133.539879,37.8874304 C133.365549,37.7697476 133.159636,37.6461596 132.957934,37.7068991 C132.801289,37.7532973 132.696859,37.8996627 132.618115,38.0434972 C132.029853,39.1174055 132.240819,40.4393335 132.520843,41.6317682 C131.983112,41.1989992 131.366217,40.8653537 130.709739,40.6527654 C130.331179,40.530021 129.793448,40.5228503 129.668385,40.9012069 C129.558059,41.2352742 129.884825,41.5377063 130.163165,41.7519818 C131.162409,42.523458 132.010062,43.4910722 132.644223,44.583118 C133.465768,45.9991078 133.238801,47.5867712 131.359058,47.5926764 C129.990939,47.5968944 128.658613,47.0506606 127.276598,47.267467 C124.498672,47.7027668 121.344713,50.0467214 120.089446,52.5235437 C119.701202,53.2903801 119.432126,54.1272356 119.345382,54.9847594 C119.322222,55.2137979 119.551715,57.5531127 119.647303,57.4902642" id="Fill-16" fill="#DBA258"></path>
                    <path d="M132.476913,46.876448 C132.494438,47.8244267 131.869972,48.6052567 131.081779,48.6211526 C130.293125,48.6370486 129.640064,47.8822303 129.622538,46.9342516 C129.604551,45.9867546 130.229018,45.2054429 131.017672,45.1895469 C131.805865,45.173651 132.459387,45.9284693 132.476913,46.876448" id="Fill-18" fill="#333333"></path>
                    <path d="M143.897367,46.3044391 C143.91489,47.251932 143.29052,48.0332403 142.501988,48.0491362 C141.713918,48.0650321 141.060497,47.310217 141.042974,46.3622424 C141.025451,45.4142679 141.64982,44.6334413 142.437891,44.6175453 C143.226423,44.6011677 143.879383,45.3564645 143.897367,46.3044391" id="Fill-20" fill="#333333"></path>
                    <path d="M135.522603,50.120294 C135.42647,50.2867606 135.35427,50.4760755 135.336828,50.6747162 C135.286125,51.2491891 135.678767,51.7350663 136.041799,52.1337467 C136.198774,52.3062751 136.362645,52.4839327 136.569107,52.5622699 C136.71432,52.6172925 136.870484,52.6186913 137.023403,52.6196239 C137.323969,52.6214891 137.624535,52.6233543 137.9251,52.6252194 C138.185915,52.6266183 138.452814,52.6270846 138.698621,52.5268316 C139.129797,52.3515055 139.423873,51.9019991 139.691178,51.4758074 C139.759322,51.3671612 139.828683,51.2566498 139.866001,51.1298181 C139.903723,51.0025202 139.90778,50.8640312 139.891555,50.7302051 C139.758916,49.6050403 138.671039,49.4497648 137.893056,49.2711746 C137.042062,49.0757979 136.047883,49.2100903 135.522603,50.120294" id="Fill-22" fill="#333333"></path>
                    <g id="Group-26" transform="translate(72.519886, 0.000000)">
                        <mask id="mask-4" fill="white">
                            <use xlink:href="#path-3"></use>
                        </mask>
                        <g id="Clip-25"></g>
                        <path d="M0.0654003515,6.86546506 C0.0238628632,4.9953325 0.348109583,3.14416681 1.19623728,1.52313237 C1.30813418,1.30943907 1.43825672,1.08689456 1.65399735,0.977729732 C2.00918526,0.79775529 2.43303718,0.99206025 2.7793242,1.18847264 C4.03774056,1.90331258 5.95694206,2.75007758 6.88941628,3.85774229 C7.8854683,5.04211743 8.21310583,7.31181853 8.31906881,8.79207671 C11.0325688,8.48776395 13.6265426,8.94001823 16.2904519,8.89154736 C16.5490016,6.31921944 18.6110412,4.29524457 20.7769245,2.86556469 C21.4398289,2.42806242 22.1544432,2.0124774 22.9461986,1.93323807 C23.2191593,1.90584149 23.5082263,1.92312241 23.7460072,2.05884084 C23.95539,2.17812133 24.1054336,2.37706263 24.2419139,2.57473948 C25.8296632,4.88279579 26.239528,7.79989911 25.5800145,10.491929 C25.3074777,11.6029656 25.2290651,13.0347529 24.7547748,14.0598064 C23.9028324,15.9021209 22.4511396,16.2970531 23.4679603,18.4377795 C24.3406714,20.2746147 25.8262724,21.7902777 27.4212272,23.0269171 C29.3730653,24.5400512 31.5669228,25.7113602 33.6268432,27.0761313 C39.6557129,31.0709738 40.8751349,37.1428985 40.783159,43.9574811 C40.7615426,45.5629205 40.6653282,47.2488638 39.818472,48.6161638 C38.6778865,50.4563708 36.4297759,51.3044003 34.2825421,51.6403245 C30.6471642,52.2093303 26.8405501,51.6445393 23.5298427,50.0458437 C23.4501586,51.1665744 23.3704744,52.2881482 23.2907902,53.408879 C23.2390803,54.1321486 23.1487998,54.9355006 22.5956731,55.4071432 C22.1552909,55.7826871 21.5343479,55.844224 20.9562138,55.889323 C18.986574,56.0440083 17.0169341,56.1982721 15.0468704,56.3525359 C14.6149653,56.3862547 14.1093099,56.3908911 13.8359254,56.0566528 C13.5184603,55.6684644 13.7367441,55.0619463 14.1067668,54.7226502 C14.4763657,54.3833542 14.9650669,54.1970574 15.3473814,53.8716704 C16.026816,53.2938133 16.2760409,52.3724453 16.49051,51.5092424 C17.0211726,49.3723093 14.4174503,49.4549205 12.6567694,48.9314352 C12.1222921,48.772535 11.550092,48.6132134 11.0173101,48.7767499 C9.74617823,49.1666243 9.78729187,53.2643093 9.66013629,54.3858831 C7.62352781,54.4819818 5.58691933,54.5776591 3.55031085,54.6741794 C2.91410911,54.7041049 2.11684365,54.6383531 1.87863887,54.0508019 C1.66035513,53.5125645 2.08335935,52.9528313 2.41311614,52.4740234 C2.9213146,51.7355803 3.2536145,50.8942946 3.58209974,50.0610171 C4.67945237,47.2775248 5.77638114,44.4940325 6.87373376,41.7109617 C8.13384552,38.5135703 9.4087921,34.9920564 8.33051282,31.7297562 C8.15376657,31.1953121 7.89860771,30.6579177 7.44593386,30.3198861 C5.79375907,29.0883046 3.78088629,29.7892355 3.26209154,27.2164861 C2.95352734,25.6864926 3.54437692,24.0405905 2.9556466,22.5797206 C2.52755616,21.5179979 1.6094929,20.6396214 1.48148962,19.5024527 C1.38951375,18.6835058 1.72901914,17.8868976 1.94136896,17.0902894 C2.52035068,14.919216 1.77182819,14.1238722 1.09747978,12.2318224 C0.500696275,10.5589452 0.106513988,8.7031432 0.0654003515,6.86546506" id="Fill-24" fill="#DBA258" mask="url(#mask-4)"></path>
                    </g>
                    <path d="M76.7495894,23.7764124 C77.6875396,22.7319836 78.8145241,21.8186439 79.4461962,20.5613024 C80.8255097,17.8169994 79.5043933,14.152074 81.2456333,11.6258244 C81.6075597,11.1010396 82.3127215,10.6336598 82.8335218,10.9973678 C83.4367325,11.4184808 83.2149888,12.5931419 83.9014596,12.8531781 C84.7319363,13.1676206 85.3636084,11.6215404 86.2229713,11.843021 C86.5152311,11.9179902 86.7153102,12.186166 86.8597409,12.4530565 C87.8779776,14.3362841 87.1587975,16.7717138 85.7765104,18.4017596 C85.3784763,18.8708529 84.8963325,19.3994932 85.0004076,20.0073868 C85.0730478,20.4327837 85.4175575,20.7493682 85.7374291,21.0363933 C86.9162388,22.0945308 88.0538433,23.2696202 88.6651251,24.737304 C89.276407,26.2049878 89.2640879,28.0286684 88.2721886,29.266732 C87.5202991,30.2053471 86.3202496,30.6817231 85.1325192,30.8273777 C83.9452136,30.9730322 82.7443145,30.8265209 81.5519114,30.7322738 C80.245238,30.6294589 78.8994834,30.5810501 77.6998587,30.0485542 C74.7428518,28.7355213 74.8137927,25.9325281 76.7495894,23.7764124" id="Fill-27" fill="#FFFFFF"></path>
                    <path d="M81.109048,26.8081507 C80.4088993,25.8907486 79.6861519,24.9249122 79.4314029,23.7377977 C79.3599089,23.4058804 79.3311469,23.0374001 79.4733132,22.7368227 C79.5826087,22.5050979 79.7786011,22.3464994 79.9770587,22.2159168 C80.653787,21.7709863 81.4989783,21.5620541 82.2155625,21.9139149 C82.8257273,22.2140174 83.2690726,22.9134653 83.353715,23.6732186 C83.4387683,24.4334468 83.170871,25.2288135 82.6778085,25.7411722 C82.1243459,26.3166853 81.2709369,26.6281842 81.0712466,27.4567901" id="Fill-29" fill="#333333"></path>
                    <path d="M78.8011364,30.3168724 C79.9254206,29.6268849 80.8294659,28.6192508 81.3667424,27.4567901 C81.7090896,28.5485691 82.4195378,29.5339049 83.3693182,30.2323069" id="Stroke-31" stroke="#333333" stroke-width="2"></path>
                    <path d="M88.584713,18.5580417 C90.5817694,20.1363246 85.9050748,21.6601008 85.6619634,19.5825749 C85.5428684,18.5609358 86.6939563,18.3732977 87.4557708,18.3139673 C87.8494734,18.284061 88.2771329,18.3149321 88.584713,18.5580417" id="Fill-33" fill="#333333"></path>
                    <path d="M78.3063039,18.5580417 C80.3033604,20.1363246 75.6266657,21.6601008 75.3835543,19.5825749 C75.2644593,18.5609358 76.4155472,18.3732977 77.1773618,18.3139673 C77.5710644,18.284061 77.9987238,18.3149321 78.3063039,18.5580417" id="Fill-35" fill="#333333"></path>
                    <path d="M87.9375,51.4814815 C88.6880928,49.2917466 89.7872675,46.9631714 90.0828512,44.6890181 C90.3728334,42.4581454 90.155239,39.9963006 89.9130845,37.7692845 C89.8493143,37.1834982 89.7696015,36.5878561 89.5166749,36.0556348 C89.1848974,35.358862 88.5859743,34.8300689 88.0034246,34.3209877" id="Stroke-37" stroke="#333333" stroke-width="2"></path>
                    <path d="M92.3491242,10.5445709 C91.6629762,9.49976599 91.9233009,8.11900818 92.4466341,6.99085945 C92.8858761,6.04486421 93.4928532,5.171043 94.2335709,4.41880064 C94.4643743,4.18423506 94.7716648,3.94322538 95.0981889,4.01797704 C95.4488669,4.09745439 95.6013939,4.48538977 95.6984566,4.81876502 C95.8536674,5.35448531 96.01022,5.91641163 95.888109,6.45986485 C95.6170492,7.66663171 94.0501807,8.50221788 94.2581721,9.72015453 C94.5216278,9.62134485 94.8280238,9.79232855 94.9657901,10.0299014 C95.1031092,10.2674742 95.1142915,10.5514446 95.1223428,10.8225268 C95.1388926,11.390038 95.0919268,13.2906207 94.1280097,13.1488503 C94.0135026,13.1320956 92.4618421,10.7164138 92.3491242,10.5445709" id="Fill-39" fill="#9E7343"></path>
                    <path d="M82.8379589,49.1934156 C82.5950473,47.4699052 83.4831781,45.6593487 85.0823864,44.617284" id="Stroke-41" stroke="#333333" stroke-width="2"></path>
                    <path d="M95.5077504,50.3374486 C95.20172,49.5969375 95.4126878,48.7731612 95.7827711,48.0525154 C96.152346,47.3322923 96.6739194,46.6699745 97.0251935,45.9434114 C97.830938,44.2738801 97.6784312,42.4065411 97.5132154,40.6131687" id="Stroke-43" stroke="#333333" stroke-width="2"></path>
                </g>
                <path d="M104.249815,143.347615 L294.124177,143.347615 C294.124177,143.347615 292.644473,136.574822 293.154277,130.05576 C293.663503,123.537267 296.16166,117.272505 295.991725,117 C289.659632,120.295087 287.002523,127.294873 284.38703,133.02259 C281.010299,130.815815 281.40797,122.772092 281.343233,119.298369 C277.626632,122.475694 276.681587,127.790387 273.644725,131.604315 C272.82164,132.638581 271.005534,134.922727 269.38075,134.025567 C268.075604,133.305335 268.377903,129.729779 268.670376,128.503792 C268.775574,128.062323 269.405026,125.978431 269.118911,126.147964 C266.291867,127.817126 263.515688,132.309755 261.270121,134.576834 C259.987518,135.871658 257.755824,137.689304 255.824695,137.809911 C254.138641,137.914589 251.902323,137.140312 250.24228,136.794988 C246.933754,136.106615 242.828153,135.261225 240.068736,133.198382 C237.693695,131.423972 235.834239,128.986222 233.238398,127.542915 C233.540697,130.3203 234.151075,133.065827 235.056238,135.712934 C229.106787,135.336889 223.28103,133.221138 218.508984,129.703609 C218.069119,129.401521 219.09971,132.444016 220.47884,135.394917 C202.835681,134.427213 179.576642,134.899054 163.160536,134.726456 C17.8231577,133.198382 6.42052868,141.622553 0,144" id="Fill-1" fill="#51B02B"></path>
                <path d="M94,72.6475309 L90.5093244,72 C89.7052207,75.8494569 89.8532353,76.9204791 90.9533683,75.2130666 C92.0535013,73.5056541 93.0690452,72.6504755 94,72.6475309 Z" id="Path-15" fill="#333333"></path>
            </g>
        </g>
    </g>
</svg>