<svg class="icon" width="136px" height="26px" viewBox="0 0 136 26" version="1.1" xmlns="http://www.w3.org/2000/svg" xmlns:xlink="http://www.w3.org/1999/xlink">
<g id="Symbols" stroke="none" stroke-width="1" fill="none" fill-rule="evenodd">
<g id="Nav-/-Mobile" transform="translate(-15.000000, -18.000000)">
<g id="MobileNav">
<g id="Group-1" transform="translate(15.000000, 18.000000)">
<g id="Group" transform="translate(40.181818, 3.090909)" fill="#66AF37" class="hide-for-small">
<path d="M69.0579816,5.3654419 C70.4911407,3.91654198 72.0548838,3.68337723 73.7018742,4.36616443 C75.4312957,5.0823415 76.1886827,6.56452648 76.337222,8.36319368 C76.402514,9.14589249 76.369868,9.97866403 76.2213287,10.7613628 C75.612481,13.9923036 71.9234837,15.5244806 69.305275,13.4260221 C69.305275,14.5918055 69.305275,15.6410751 69.305275,16.7068743 C69.288952,17.8060553 69.0743046,18.0225534 68.0043322,18.0392443 C67.7243928,18.0392443 67.4607764,18.0558545 67.180837,18.0392443 C66.3246958,18.0059431 66.0447564,17.739453 66.0276173,16.8734609 C66.0112943,13.0430182 66.0112943,9.21257549 66.0276173,5.38213281 C66.0276173,4.53275099 66.3410188,4.23295968 67.180837,4.23295968 C67.97087,4.24965059 68.8931194,4.01646166 69.0579816,5.3654419 Z M69.1730588,9.19588458 C69.2554899,10.8113549 70.2275243,11.8772348 71.478682,11.6273549 C72.4172544,11.4442387 73.0269183,10.6780696 73.0930264,9.59557945 C73.1754575,8.26329012 72.6645478,7.23071146 71.7586214,6.91430988 C70.9188033,6.63112885 69.9965539,6.96422134 69.6015374,7.78030198 C69.3877062,8.22998893 69.305275,8.72958735 69.1730588,9.19588458 Z" id="Shape" fill-rule="nonzero"></path>
<path d="M25.6321995,5.3154498 C26.9990056,3.93318451 28.5634833,3.68336917 30.226715,4.36616443 C31.9558917,5.0823415 32.7133603,6.56452648 32.8615731,8.36319368 C32.9274364,9.14589249 32.8945456,9.97866403 32.7463328,10.7613628 C32.1534815,13.9756126 28.4811337,15.5244806 25.8297894,13.442713 C25.8297894,14.5751953 25.8297894,15.6076933 25.8297894,16.6402719 C25.8297894,17.8393565 25.6321995,18.0392443 24.446497,18.0558545 C24.2489071,18.0558545 24.0677219,18.0558545 23.870132,18.0558545 C22.8161561,18.0392443 22.5691076,17.7894451 22.5691076,16.7235652 C22.5691076,13.3427289 22.5691076,9.96197312 22.5691076,6.58121739 C22.5691076,6.13153043 22.5527029,5.69853439 22.5691076,5.24884743 C22.60208,4.61596364 22.9313965,4.31625296 23.5572202,4.26626087 C24.9569987,4.1496664 25.2699106,4.28295178 25.6321995,5.3154498 Z M29.7162133,9.32908933 C29.6173775,7.83021344 28.8763951,6.86431779 27.7400697,6.84762688 C26.5873397,6.8310166 25.8133032,7.73030988 25.7804123,9.12928221 C25.7474399,10.6281581 26.5214764,11.7606403 27.6412339,11.6440458 C28.1847081,11.5940538 28.7940456,11.1943589 29.1892253,10.7780538 C29.5186234,10.4116601 29.5680005,9.81207747 29.7162133,9.32908933 Z" id="Shape" fill-rule="nonzero"></path>
<path d="M37.5054657,13.4760142 C37.5054657,14.6084964 37.5054657,15.6743763 37.5054657,16.7401755 C37.5054657,17.7894451 37.2749034,18.0225534 36.2703862,18.0392443 C36.1550642,18.0392443 36.0563101,18.0392443 35.9409881,18.0392443 C34.3765105,18.0392443 34.2447839,17.9059589 34.2447839,16.3571715 C34.2447839,12.7765281 34.2447839,9.21257549 34.2447839,5.63193202 C34.2447839,4.98235731 34.2777563,4.38285534 35.0846837,4.24965059 C36.418599,4.03307194 36.9784778,4.28295178 37.2255263,5.11564269 C37.9994812,4.76585929 38.7405453,4.23295968 39.5474726,4.09975494 C41.787151,3.70002783 43.6642956,4.88245375 44.2739595,7.114117 C44.5538989,8.13000474 44.6363301,9.26248696 44.5204368,10.3116759 C44.1090973,13.6925123 40.4697219,15.6576854 37.5054657,13.4760142 Z M37.3737391,9.12928221 C37.4231162,10.794664 38.4112288,11.8772348 39.6791992,11.6107447 C40.6179347,11.4108569 41.2271906,10.6114672 41.2930539,9.47898498 C41.3589172,8.22998893 40.8155246,7.19741028 39.9262477,6.89761897 C39.0699433,6.63112885 38.1806665,6.96422134 37.7689189,7.79691225 C37.571329,8.21329802 37.4889795,8.69628617 37.3737391,9.12928221 Z" id="Shape" fill-rule="nonzero"></path>
<path d="M3.44989987,9.87867984 C3.44989987,10.9778609 3.46630448,11.9438372 3.44989987,12.8931225 C3.43341364,13.9090103 3.18636509,14.1588095 2.16536164,14.1754198 C2.0006626,14.1754198 1.83604518,14.1754198 1.67134614,14.1754198 C0.353917077,14.1921107 0.139840975,13.9922229 0.139840975,12.6765439 C0.139840975,9.02929802 0.139840975,5.39874308 0.139840975,1.7681317 C0.139840975,0.635649486 0.370403304,0.402492806 1.47375627,0.402492806 C2.92291192,0.402492806 4.38855379,0.385842213 5.83770944,0.402492806 C8.50554003,0.435802055 10.2017442,2.30106356 10.2017442,5.16555415 C10.2017442,8.03010119 8.47256758,9.87867984 5.80481861,9.89537075 C5.08015917,9.89537075 4.33917673,9.87867984 3.44989987,9.87867984 Z M3.46630448,7.03082372 C4.14150524,7.03082372 4.70146564,7.08081581 5.27783066,7.01421344 C6.19999836,6.93092016 6.71050008,6.39793992 6.84222666,5.46534545 C6.94106241,4.71594783 6.85871289,3.86654988 6.13413506,3.58343336 C5.37658479,3.30030877 4.48738954,3.36692727 3.66397597,3.31696743 C3.61451729,3.31696743 3.48279071,3.53346545 3.48279071,3.65004379 C3.44989987,4.76585929 3.46630448,5.86504032 3.46630448,7.03082372 Z" id="Shape" fill-rule="nonzero"></path>
<path d="M63.7717791,1.05201107 C64.5454892,1.38509549 64.6613825,1.91802735 64.2990119,2.70077455 C64.1839348,2.95058182 64.0353955,3.1837385 63.9203184,3.43355383 C63.6069169,4.11636522 63.1294692,4.18296759 62.5034823,3.91652585 C61.9436035,3.68336917 61.3837247,3.43355383 60.8075229,3.31697549 C60.4288294,3.2337064 59.9677047,3.250357 59.6053342,3.38359399 C59.3090718,3.48351368 58.9140553,3.78328885 58.8805932,4.03307194 C58.8316242,4.33286324 59.0291324,4.79916047 59.2764258,5.0156585 C59.6387964,5.33214071 60.116244,5.53194783 60.5439065,5.74844585 C61.3021097,6.11483953 62.1084658,6.41463083 62.8495298,6.8310166 C64.2165808,7.59710514 64.9249989,8.76288854 64.8091056,10.3783589 C64.6940284,11.9771383 63.9692874,13.226215 62.5206214,13.8590182 C60.132567,14.9082071 57.8595897,14.4586008 55.7359678,13.0596285 C55.208735,12.7099257 55.1589499,12.2269375 55.4723514,11.677347 C55.5711056,11.5108411 55.6861827,11.3442545 55.7849368,11.1943589 C56.5586469,10.0618767 56.6908632,10.0785676 57.9256979,10.6281581 C58.6830849,10.9612506 59.5229031,11.1777486 60.3300753,11.244351 C60.6924458,11.2776522 61.2686476,10.8446561 61.4008639,10.4948727 C61.499618,10.2284632 61.1037853,9.67887273 60.7911999,9.3956917 C60.4614754,9.09598103 59.9840277,8.94608538 59.5726882,8.72958735 C58.9793473,8.44640632 58.3541765,8.21329802 57.7942977,7.89689644 C55.9497991,6.88092806 55.1924121,5.41543399 55.5376434,3.61675067 C55.883691,1.83475826 57.3331731,0.519079209 59.2601028,0.252613281 C59.6387964,0.202653439 60.0174899,0.202653439 60.4125064,0.16934419 C61.2360016,0.202653439 62.7181297,0.602356364 63.7717791,1.05201107 Z" id="Path"></path>
<path d="M83.0067985,4.01646166 C86.0861318,4.04976285 88.2432158,5.84843004 88.5729404,8.56300079 C88.9353109,11.5607526 86.92595,14.0755162 83.8955857,14.3586972 C81.9196869,14.5418941 80.0915113,14.1588095 78.7244603,12.5933312 C77.3410863,11.0111621 77.1272551,9.14597312 77.8846421,7.23071146 C78.6428453,5.29883953 80.2065884,4.36616443 82.1833033,4.06645375 C82.4795657,4.03315257 82.7921511,4.03315257 83.0067985,4.01646166 Z M85.2789596,9.29578814 C85.2952826,7.86359526 84.3893563,6.81432569 83.1055526,6.78102451 C81.8699018,6.74772332 80.8325753,7.84690435 80.7999293,9.19588458 C80.7836063,10.578166 81.7548246,11.6440458 83.0394445,11.6440458 C84.3403873,11.6274356 85.2626366,10.6614593 85.2789596,9.29578814 Z" id="Shape" fill-rule="nonzero"></path>
<path d="M49.9388556,10.1618609 C50.3836572,8.51308933 50.8113197,6.99752253 51.1736903,5.46534545 C51.3883377,4.59935336 51.8323232,4.23295968 52.7382495,4.23295968 C55.0275498,4.24956996 55.0936579,4.33286324 54.3028087,6.51453439 C53.2328363,9.39577233 52.1783707,12.2769296 51.1247213,15.158087 C50.2187949,17.5895573 48.0943569,18.7220395 45.8548418,18.0725455 C45.2451778,17.8893486 44.8836235,17.572947 45.0150236,16.8900711 C45.2125318,15.8408822 45.7397646,15.2746008 46.4808287,15.4577976 C47.2055697,15.6409945 47.6993404,15.3911953 48.1278191,14.8582957 C48.5718046,14.3087051 48.4730504,13.7924158 48.209434,13.1762229 C47.1231386,10.7280617 46.0858122,8.26329012 45.0313466,5.79843794 C44.5375759,4.64934545 44.7840532,4.26626087 46.003381,4.26626087 C48.0943569,4.24956996 48.0943569,4.24956996 48.7366668,6.2481249 C49.1153604,7.49720158 49.4940539,8.76288854 49.9388556,10.1618609 Z" id="Path"></path>
<path d="M17.9417012,12.8931225 C17.0030473,14.0589059 15.8832081,14.4586008 14.5328066,14.3919984 C12.7872253,14.2920142 11.5850366,13.2761265 11.5027687,11.5274514 C11.4039329,9.42907352 11.45331,7.31400474 11.45331,5.21554625 C11.45331,5.03234941 11.4862825,4.79916047 11.6015228,4.66595573 C12.2932098,3.91652585 13.1989729,4.26626087 14.0059002,4.31625296 C14.6481285,4.34955415 14.7139918,4.98235731 14.7139918,5.53194783 C14.7139918,6.99752253 14.7139918,8.46309723 14.7139918,9.94528221 C14.7139918,10.5115636 14.7139918,11.2110498 15.3727064,11.2943431 C15.8996943,11.3609455 16.5748951,11.1777486 17.0195335,10.8779573 C17.7441113,10.3783589 17.8428655,9.47898498 17.8593517,8.62968379 C17.8758379,7.58041423 17.8428655,6.5312253 17.8758379,5.46534545 C17.8923241,4.53275099 18.1557773,4.28295178 19.0615404,4.24956996 C21.0870611,4.1996585 21.1529244,4.24956996 21.1529244,6.28142609 C21.1529244,8.44648696 21.1364381,10.6114672 21.1529244,12.7598372 C21.1529244,13.4926245 21.0705748,14.0922071 20.181298,14.1921107 C18.6004157,14.3586972 18.2216406,14.1588095 17.9417012,12.8931225 Z" id="Path"></path>
<path d="M90.2027916,7.09750672 C88.9516339,6.76441423 88.8357406,6.58121739 88.8855258,5.41543399 C88.9181717,4.53275099 89.4780505,4.39946561 90.2688997,4.38285534 C90.2688997,3.78329692 90.2525767,3.21705581 90.2688997,2.63416411 C90.2852227,1.93469407 90.6149473,1.5516498 91.3388722,1.5516498 C91.5371966,1.5516498 91.7183818,1.5516498 91.9158901,1.5516498 C93.2494789,1.5516498 93.4469872,1.75149723 93.4469872,3.06717628 C93.4469872,3.48352174 93.4469872,3.88322466 93.4469872,4.21626877 C94.1219431,4.39946561 94.764253,4.46614862 95.2588398,4.76585929 C95.4889941,4.89914466 95.4726711,5.51533755 95.4726711,5.91503241 C95.4726711,6.79771542 95.341271,6.86431779 93.5130953,7.03082372 C93.5130953,8.11339447 93.4143412,9.21257549 93.5620643,10.2950656 C93.6118495,10.6447684 94.2378364,11.0444632 94.6654989,11.1777486 C95.5877482,11.4775399 95.7526105,11.7106482 95.6375334,13.1929138 C95.5714252,13.9590024 95.0613316,14.1255083 94.4516676,14.1588095 C91.833459,14.3087051 90.2362537,12.7765281 90.2191146,10.1618609 C90.2191146,9.41238261 90.2191146,8.66298498 90.2191146,7.91350672 C90.2027916,7.68039842 90.2027916,7.39721739 90.2027916,7.09750672 Z" id="Path"></path>
</g>
<path d="M16.224752,1.79883244 C18.6315537,-0.3869466 22.0141916,-0.408375814 24.2908981,0.834521845 C26.8062075,2.1845583 27.846969,4.90607255 26.5460172,7.47758634 C25.5268431,9.49190822 24.117465,11.2062454 22.3611392,12.5992049 C20.9950175,13.6920504 19.5205511,14.67777 18.0244157,15.6421453 C17.5473728,15.9420977 17.3956087,16.2207057 17.3522708,16.7778411 C17.1787562,19.1136699 19.0652586,22.2851612 22.4261461,23.0352039 C25.7436956,23.7852467 29.0612451,21.8994273 30.145426,18.6422352 C30.2971902,18.1708006 30.5140426,17.7636415 31.0344234,17.6350096 C31.9451712,17.3993327 32.6607354,18.1922258 32.4004636,19.1136699 C32.0535974,20.3351472 31.4681283,21.4279927 30.6224689,22.3923679 C26.6977813,26.8710373 19.8241608,26.4424531 16.4849423,21.5351994 C16.419854,21.4279927 16.3330967,21.3208668 16.224752,21.1708906 C16.1163257,21.342292 16.0078995,21.470843 15.9211422,21.5994749 C13.8828756,24.4280827 11.1074573,25.8210422 7.59474054,25.4138831 C3.86520391,24.9852988 1.4149828,22.8638026 0.135666466,19.392278 C0.0922992304,19.2636461 0.0489328095,19.1565202 0.0272495177,19.0279692 C-0.102850885,18.3850523 0.244082925,17.8064918 0.829530014,17.6564348 C1.43666805,17.5064586 2.02212084,17.7850667 2.23894887,18.4279027 C2.58588839,19.4565535 3.06292309,20.4208479 3.84351866,21.1923158 C5.72997223,23.0566291 7.96335716,23.7209711 10.5219882,22.9280781 C13.0372976,22.135185 14.555102,20.3565724 15.0538138,17.7850667 C15.1405711,17.2922069 15.1189021,16.7778411 15.0754828,16.2635561 C15.0538138,16.1135799 14.8586303,15.9420977 14.7068661,15.8349718 C12.5819237,14.6134945 10.6304144,13.2206157 8.89575761,11.5062786 C7.72484388,10.3276516 6.74908923,9.02047359 5.9684855,7.54186994 C4.60243714,5.01322266 5.62155414,2.37742527 7.85493907,1.00595556 C10.413562,-0.558381122 13.8178688,-0.279800528 16.0946568,1.71311559 C16.1163257,1.73454884 16.1596636,1.75597401 16.224752,1.79883244 Z M7.44296011,5.31323166 C7.48632245,5.5918074 7.5080077,5.87039123 7.57305529,6.14897506 C7.70315863,6.68470137 8.11513759,6.9632852 8.5704789,6.89899351 C9.09085966,6.81327665 9.3511315,6.47040923 9.3511315,5.89182449 C9.30771213,4.64892198 9.95818807,4.02747881 11.2375525,4.11319566 C11.7579332,4.13462083 12.1265498,3.83461184 12.1916382,3.34174395 C12.256645,2.87030124 11.9314478,2.4202837 11.4326545,2.35599201 C11.042369,2.31313358 10.6304144,2.33456684 10.2401289,2.37742527 C8.48372162,2.54885898 7.44296011,3.66317812 7.44296011,5.31323166 Z" id="Shape" fill="#000000" fill-rule="nonzero"></path>
</g>
</g>
</g>
</g>
</svg>