
<svg width="145px" height="145px" viewBox="0 0 145 145" version="1.1" xmlns="http://www.w3.org/2000/svg" xmlns:xlink="http://www.w3.org/1999/xlink">
    <defs>
        <polygon id="path-1" points="0 0.398929773 32.1191973 0.398929773 32.1191973 47.6181911 0 47.6181911"></polygon>
    </defs>
    <g id="Puppies-for-Sale" stroke="none" stroke-width="1" fill="none" fill-rule="evenodd">
        <g id="Puppies-for-Sale-M" transform="translate(-117.000000, -2302.000000)">
            <g id="Group-4" transform="translate(0.000000, 2302.000000)">
                <g id="Group-7">
                    <g id="PuppySpot-Promise---Mobile" transform="translate(117.000000, 0.000000)">
                        <path d="M17.4946541,39.4001798 L18.9282105,42.4869398 L20.5448476,41.7051173 C22.0423094,40.9808594 22.5529779,40.0856696 22.0676414,39.0418689 C21.5828805,37.9980683 20.6381151,37.8800019 19.1112912,38.6189446 L17.4946541,39.4001798 Z M19.8913992,44.5592689 L20.9311593,46.7990055 C21.2754431,47.5397104 21.0117609,48.2234381 20.3744328,48.5318204 C19.7371047,48.8396153 19.0663846,48.6087691 18.7215251,47.8668894 L14.9902484,39.8330898 C14.5682417,38.9255648 14.8417112,38.144917 15.7312071,37.7149439 L18.5338386,36.359824 C19.7647396,35.764793 20.8908585,35.6091333 21.9277401,35.8863837 C22.9640459,36.1624593 23.735518,36.8455995 24.2415807,37.935217 C24.754552,39.0401068 24.7983072,40.111515 24.3584529,41.1582526 C23.9185987,42.2044029 23.0941598,43.0103086 21.8931966,43.5918296 L19.8913992,44.5592689 Z" id="Fill-1" fill="#000000"></path>
                        <path d="M30.9326008,39.1844268 C31.5331053,40.8708009 32.7467374,41.7321273 34.3011963,41.2078417 C35.871284,40.6777046 36.3275231,39.464709 35.6482738,37.557737 L33.8521705,32.5149985 C33.5768641,31.7426135 33.9104777,31.1007146 34.6065579,30.8654883 C35.3026382,30.6302619 35.9728708,30.9333645 36.2481772,31.7063348 L38.0160286,36.6700793 C39.1893866,39.9638336 38.0430783,42.3453543 35.0646004,43.3506252 C32.0855213,44.3564812 29.6702792,43.1762534 28.4975223,39.8830842 L26.7290698,34.9187546 C26.4537634,34.1469546 26.787377,33.5044707 27.4834572,33.2698294 C28.1795374,33.0346031 28.8497701,33.3382908 29.1250765,34.1100908 L30.9326008,39.1844268 Z" id="Fill-3" fill="#000000"></path>
                        <path d="M43.1041315,30.817177 L43.8659075,34.2566897 L45.6565836,33.838805 C47.3160616,33.4524587 48.0234673,32.6670295 47.7657991,31.5031387 C47.5081309,30.3398544 46.5873806,30.0044549 44.8948075,30.3998988 L43.1041315,30.817177 Z M44.3771071,36.5668826 L44.9296755,39.0626673 C45.112289,39.8887326 44.6986015,40.5170759 43.9923777,40.6820464 C43.286154,40.8464103 42.6644407,40.4594576 42.4818272,39.6333923 L40.4990819,30.6794995 C40.2750996,29.6678424 40.7195183,28.9436706 41.7052766,28.7138037 L44.8108881,27.9896319 C46.174284,27.6712147 47.337337,27.7725017 48.3154126,28.2892474 C49.2940791,28.8065996 49.9175653,29.6714815 50.1858712,30.885106 C50.458905,32.1169259 50.2686087,33.2068226 49.5984349,34.1614678 C48.9282611,35.1155065 47.9259553,35.7389978 46.5950634,36.0495304 L44.3771071,36.5668826 Z" id="Fill-5" fill="#000000"></path>
                        <path d="M55.9121945,27.5756348 L56.3237347,31.1660465 L58.1853208,30.9397025 C59.9099278,30.729526 60.7106814,30.0075884 60.5718921,28.7931661 C60.4324995,27.5787439 59.5327832,27.1353834 57.7737805,27.3492909 L55.9121945,27.5756348 Z M56.6001063,33.5774799 L56.8982015,36.1823005 C56.9971642,37.0453922 56.5107985,37.6398559 55.7764224,37.7287768 C55.0420463,37.8183194 54.4518904,37.3544387 54.353531,36.4919689 L53.2824402,27.1465762 C53.1611505,26.0894755 53.6885496,25.4011163 54.7137796,25.2767515 L57.9415344,24.8837588 C59.3589949,24.7115135 60.5290485,24.9440757 61.4679878,25.578958 C62.4063237,26.2150839 62.9482052,27.1658528 63.0936322,28.4331301 C63.2408694,29.7178184 62.932516,30.8078758 62.1522791,31.7064115 C61.3720422,32.6043253 60.2888828,33.1291448 58.9052145,33.2970373 L56.6001063,33.5774799 Z" id="Fill-7" fill="#000000"></path>
                        <path d="M71.8873257,32.2044395 L71.9410204,35.2942531 C71.9563618,36.179049 71.4447861,36.7317295 70.7213816,36.7463071 C69.997977,36.7602509 69.4675197,36.2297536 69.4521783,35.3436902 L69.3978934,32.2545103 L66.2417017,25.8847406 C65.8906204,25.0424099 66.1655849,24.4041653 66.8329345,24.0834585 C67.433018,23.7823997 68.1109886,24.0574723 68.4780013,24.8459294 L70.59216,29.3212472 L72.5647061,24.7635344 C72.9045765,23.9611335 73.571926,23.659441 74.1826305,23.9357812 C74.8606011,24.2292343 75.1573975,24.8554365 74.8364089,25.711711 L71.8873257,32.2044395 Z" id="Fill-9" fill="#000000"></path>
                        <path d="M86.4334371,27.2478251 C85.9701373,27.801022 85.2813158,27.8704845 84.6059765,27.3147844 C83.9012214,26.6858672 83.1051546,26.3354257 82.2171632,26.2640858 C81.1201965,26.1752239 80.3847999,26.6170305 80.3290323,27.3460738 C80.2763289,28.0212994 80.8168454,28.5125433 81.9665155,28.8198053 L82.9801372,29.0807591 C85.6796556,29.7453463 86.9549559,31.1539958 86.788266,33.305456 C86.7006312,34.4431392 86.1766611,35.3317586 85.2347406,35.9531664 C84.2928201,36.5752 83.0990263,36.8367795 81.6361998,36.7191313 C80.052033,36.5914705 78.6615205,35.99572 77.4481161,34.9143578 C76.8089338,34.3436388 76.7856463,33.5188498 77.2979726,33.0057034 C77.7612725,32.4525065 78.4690917,32.3667735 79.1254332,32.9381183 C79.9889114,33.7773004 80.9528938,34.2303711 81.9799978,34.313601 C83.3037117,34.419985 84.1481921,33.9155996 84.2088624,33.1333642 C84.2597273,32.4756607 83.7192108,31.9844169 82.6038592,31.6802837 L81.3003687,31.324836 C78.948938,30.6877835 77.5829388,29.3248165 77.7422747,27.2622182 C77.831748,26.107013 78.3367203,25.2352899 79.2774152,24.6314041 C80.2187229,24.0093705 81.3071099,23.7571778 82.543189,23.8566782 C84.0231747,23.9762038 85.2813158,24.4712023 86.2826808,25.3391707 C86.9408608,25.8929934 86.9457634,26.7346787 86.4334371,27.2478251" id="Fill-11" fill="#000000"></path>
                        <path d="M93.8782534,29.3414985 L93.2320689,32.790097 L95.0862055,33.1334482 C96.8049105,33.4514555 97.7832971,33.020607 98.0019309,31.8535747 C98.2205648,30.6871459 97.4851048,30.0088913 95.7329973,29.6842464 L93.8782534,29.3414985 Z M92.7978377,35.1060586 L92.3283822,37.6078765 C92.1729093,38.4363849 91.5340125,38.8424928 90.8021964,38.7073246 C90.0703803,38.5721565 89.6379711,37.9675203 89.7934441,37.1390119 L91.4763175,28.1623977 C91.6664075,27.1480331 92.3727163,26.6664965 93.393615,26.8553699 L96.6093547,27.4503511 C98.021365,27.7122394 99.0780954,28.2746356 99.7953359,29.1423669 C100.513184,30.0094948 100.757932,31.0522206 100.529581,32.2693375 C100.298194,33.502747 99.686019,34.4217698 98.6754447,35.0221819 C97.6654777,35.6219907 96.4727085,35.7867268 95.0941006,35.5314763 L92.7978377,35.1060586 Z" id="Fill-13" fill="#000000"></path>
                        <path d="M105.622654,37.1335474 C106.036839,38.062931 106.785462,38.6883339 107.879033,39.0309351 C108.939222,39.3635697 109.907919,39.2763621 110.755452,38.7425272 C111.619676,38.2136755 112.211899,37.4319219 112.541392,36.364252 C112.860994,35.3295964 112.796703,34.342282 112.365827,33.4079151 C111.934333,32.4729253 111.225274,31.8412933 110.198467,31.5192482 C109.121587,31.1816302 108.153507,31.2688378 107.271974,31.7920833 C106.407132,32.320312 105.815528,33.1020657 105.49098,34.1535399 C105.160869,35.2218327 105.208469,36.2041638 105.622654,37.1335474 M106.017057,29.5203259 C107.539031,28.7142787 109.164242,28.5915652 110.864253,29.1241543 C112.580338,29.6623497 113.850092,30.6926449 114.666097,32.2318586 C115.488285,33.7536309 115.627376,35.3968708 115.082754,37.1603326 C114.533187,38.9406129 113.493398,40.2144665 111.954733,41.0149075 C110.420396,41.7991527 108.795185,41.9218663 107.0791,41.3836709 C105.379089,40.8510818 104.109953,39.8207866 103.305075,38.3039976 C102.505142,36.7697672 102.36605,35.1265273 102.916236,33.3462469 C103.460239,31.5827851 104.500028,30.3095545 106.017057,29.5203259" id="Fill-15" fill="#000000"></path>
                        <path d="M126.447582,35.8336733 C127.165449,36.1449328 127.410843,36.7990641 127.133707,37.4349576 C126.862675,38.054437 126.215007,38.3219256 125.496529,38.0106661 L123.294702,37.0574339 L119.901313,44.8273711 C119.561913,45.6061278 118.842825,45.8614579 118.156699,45.5647887 C117.470574,45.2675115 117.184282,44.5762965 117.524292,43.7981477 L120.917682,36.0269946 L118.731726,35.0810575 C118.013858,34.769798 117.767854,34.1156667 118.038886,33.4955794 C118.316632,32.8596859 118.9643,32.5928052 119.682168,32.9040647 L126.447582,35.8336733 Z" id="Fill-17" fill="#000000"></path>
                        <path d="M93.6815643,64.9260373 L44.9251647,64.9260373 C42.9247358,64.7750123 41.2661219,63.3570892 40.7573041,61.4463477 C40.7573041,61.4463477 40.7549012,61.4402333 40.7549012,61.438399 C39.922891,58.2564794 36.7222047,55.7612038 33.2451829,55.623019 C28.5354644,55.4359192 24.6598639,59.2659623 24.6598639,64.0180529 C24.6598639,66.3323431 25.5804765,68.4271272 27.0684832,69.945326 C28.2014589,71.100331 28.183437,72.9187455 27.053465,74.0768077 C25.4885649,75.6818306 24.5556322,77.9264169 24.66917,80.3929549 C24.86681,84.6852447 28.3648573,88.216295 32.5837799,88.3838288 C36.3978108,88.5354653 39.6639766,86.0511956 40.7681172,82.5770089 C40.7681172,82.5770089 40.7705201,82.5690602 40.7717216,82.566003 C41.2883489,80.6436442 42.9565744,79.2104352 44.9768274,79.0808105 L44.9828347,79.0808105 L45.1684601,79.0808105 L45.5775568,79.0808105 L93.6599381,79.0808105 L101.060924,79.0808105 C103.061353,79.2318355 104.719967,80.6497586 105.228785,82.5611115 C105.228785,82.5611115 105.231188,82.5672259 105.231188,82.5684488 C106.063198,85.7509799 109.263884,88.2462554 112.741507,88.3838288 C117.450625,88.5709286 121.326531,84.740274 121.326531,79.9894063 C121.326531,77.6745047 120.405612,75.580332 118.917606,74.0615218 C117.785231,72.9065168 117.803253,71.0881023 118.932624,69.9300401 C120.498125,68.3250172 121.430457,66.0804309 121.316919,63.6138929 C121.119279,59.3216031 117.621232,55.7905528 113.402309,55.623019 C109.588278,55.4713825 106.322713,57.9562637 105.217972,61.4298389 C105.217972,61.4298389 105.215569,61.4377876 105.214367,61.4414562 C104.69774,63.3632036 103.030115,64.7964126 101.009862,64.9260373 L101.003254,64.9260373 L93.6815643,64.9260373 Z" id="Fill-19" fill="#9DD87D" fill-rule="nonzero"></path>
                        <polygon id="Fill-21" fill="#66AF37" points="142.439629 72.0264287 113.435374 101.30137 115.995745 101.30137 145 72.0264287 126.773807 53.630137 124.213436 53.630137"></polygon>
                        <polygon id="Fill-23" fill="#66AF37" points="54.8328637 20.8561644 72.9934983 2.57148232 91.1535309 20.8561644 93.707483 20.8561644 72.9934983 0 52.2789116 20.8561644"></polygon>
                        <g id="Group-27" transform="translate(0.000000, 53.630137)">
                            <mask id="mask-2" fill="white">
                                <use xlink:href="#path-1"></use>
                            </mask>
                            <g id="Clip-26"></g>
                            <polygon id="Fill-25" fill="#66AF37" mask="url(#mask-2)" points="32.1191973 47.6181911 2.60524856 18.6202025 21.151346 0.398929773 18.5454218 0.398929773 -6.14170194e-05 18.6202025 29.5138874 47.6181911"></polygon>
                        </g>
                        <polygon id="Fill-28" fill="#66AF37" points="89.1963746 126.130137 72.9928981 142.444254 56.7900199 126.130137 54.2517007 126.130137 72.9928981 145 91.7346939 126.130137"></polygon>
                        <path d="M32.2257366,109.768704 L32.2257366,113.505004 L34.1526324,113.505004 C35.9381275,113.505004 36.8392475,112.863761 36.8392475,111.600551 C36.8392475,110.336698 35.9734777,109.768704 34.1526324,109.768704 L32.2257366,109.768704 Z M32.2257366,116.014076 L32.2257366,118.72426 C32.2257366,119.621871 31.6601334,120.171233 30.8997941,120.171233 C30.1400749,120.171233 29.5918367,119.621871 29.5918367,118.72426 L29.5918367,109.00024 C29.5918367,107.900874 30.2101551,107.260274 31.2712812,107.260274 L34.612185,107.260274 C36.0795283,107.260274 37.2460849,107.644506 38.1298398,108.414254 C39.0135947,109.182718 39.4557823,110.226826 39.4557823,111.545936 C39.4557823,112.882395 39.0135947,113.962484 38.1124748,114.78749 C37.2107347,115.611211 36.0441781,116.014076 34.612185,116.014076 L32.2257366,116.014076 Z" id="Fill-30" fill="#000000"></path>
                        <path d="M45.0488658,109.768704 L45.0488658,113.46838 L47.0818123,113.46838 C48.796607,113.46838 49.6623767,112.84577 49.6623767,111.581918 C49.6623767,110.336698 48.8673074,109.768704 47.0818123,109.768704 L45.0488658,109.768704 Z M47.1525127,115.959461 L45.0488658,115.959461 L45.0488658,118.72426 C45.0488658,119.621871 44.4832627,120.171233 43.7229233,120.171233 C42.9632041,120.171233 42.414966,119.621871 42.414966,118.72426 L42.414966,109.00024 C42.414966,107.900874 43.0332844,107.260274 44.0944105,107.260274 L47.5413649,107.260274 C48.9380078,107.260274 50.0692141,107.625872 50.9529691,108.376988 C51.836724,109.110112 52.2789116,110.134945 52.2789116,111.436064 C52.2789116,113.248636 51.3244562,114.7136 49.8397479,115.446724 L51.7486586,117.973787 C52.2609264,118.706269 52.1195256,119.52999 51.483222,119.952131 C50.9002538,120.336363 50.1045643,120.115975 49.5916763,119.384136 L47.1525127,115.959461 Z" id="Fill-32" fill="#000000"></path>
                        <path d="M58.962826,116.528749 C59.6367123,117.29684 60.5414498,117.671489 61.6938389,117.671489 C62.8113826,117.671489 63.7161201,117.29684 64.3719614,116.528749 C65.0458477,115.760657 65.383102,114.83218 65.383102,113.706982 C65.383102,112.618121 65.028425,111.689019 64.3364937,110.921553 C63.6445624,110.153461 62.7759149,109.760645 61.6938389,109.760645 C60.5588725,109.760645 59.654135,110.135919 58.962826,110.903385 C58.2889397,111.671476 57.9516854,112.599953 57.9516854,113.706982 C57.9516854,114.83218 58.2889397,115.760657 58.962826,116.528749 M57.0830379,109.100311 C58.3063624,107.867981 59.8314735,107.260274 61.6229035,107.260274 C63.4323785,107.260274 64.9574896,107.867981 66.1988591,109.100311 C67.4408509,110.314473 68.0612245,111.85003 68.0612245,113.706982 C68.0612245,115.582104 67.4408509,117.117661 66.1988591,118.349991 C64.9574896,119.564779 63.4323785,120.171233 61.6229035,120.171233 C59.8314735,120.171233 58.3063624,119.564779 57.0830379,118.349991 C55.8590911,117.117661 55.2380952,115.582104 55.2380952,113.706982 C55.2380952,111.85003 55.8590911,110.314473 57.0830379,109.100311" id="Fill-34" fill="#000000"></path>
                        <path d="M75.9440158,114.519046 L78.9925277,108.180766 C79.281724,107.566893 79.759137,107.260274 80.4403019,107.260274 C81.3431442,107.260274 81.8707483,107.874146 81.8707483,108.867492 L81.8707483,118.744566 C81.8707483,119.628947 81.3431442,120.171233 80.6105932,120.171233 C79.8780421,120.171233 79.350438,119.628947 79.350438,118.744566 L79.350438,112.894089 L77.3236735,116.992907 C77.0165518,117.606779 76.5570642,117.914032 75.9440158,117.914032 C75.3309673,117.914032 74.8708822,117.606779 74.5816859,117.011279 L72.5549214,112.894089 L72.5549214,118.744566 C72.5549214,119.628947 72.0267198,120.171233 71.2941688,120.171233 C70.5622152,120.171233 70.0340136,119.628947 70.0340136,118.744566 L70.0340136,108.867492 C70.0340136,107.874146 70.5622152,107.260274 71.46446,107.260274 C72.1288946,107.260274 72.6230379,107.566893 72.9122343,108.180766 L75.9440158,114.519046 Z" id="Fill-36" fill="#000000"></path>
                        <path d="M86.8027211,108.694329 C86.8027211,107.804973 87.2157066,107.260274 87.7891156,107.260274 C88.362057,107.260274 88.7755102,107.804973 88.7755102,108.694329 L88.7755102,118.73654 C88.7755102,119.625897 88.362057,120.171233 87.7891156,120.171233 C87.2157066,120.171233 86.8027211,119.625897 86.8027211,118.73654 L86.8027211,108.694329 Z" id="Fill-38" fill="#000000"></path>
                        <path d="M100.77049,110.332015 C100.347762,110.920927 99.6605218,111.046227 98.9386718,110.546278 C98.1809766,109.974908 97.3528268,109.689223 96.4548405,109.689223 C95.3448726,109.689223 94.6403272,110.188546 94.6403272,110.920927 C94.6403272,111.599429 95.2212681,112.046125 96.4016906,112.260389 L97.441204,112.438942 C100.206853,112.885638 101.598639,114.188763 101.598639,116.349569 C101.598639,117.492936 101.140685,118.421412 100.242081,119.117456 C99.3434764,119.814127 98.1636719,120.171233 96.6835087,120.171233 C95.0803591,120.171233 93.6360411,119.689453 92.3326323,118.707097 C91.6453915,118.18898 91.5576324,117.367635 92.0328915,116.814434 C92.4556187,116.224895 93.160782,116.082053 93.8653274,116.60017 C94.7985409,117.367635 95.802827,117.74291 96.8423404,117.74291 C98.1809766,117.74291 98.9912037,117.17154 98.9912037,116.38528 C98.9912037,115.72432 98.4102628,115.278877 97.2650676,115.063986 L95.9264315,114.814012 C93.5130547,114.367316 92.0328915,113.117444 92.0328915,111.046227 C92.0328915,109.885319 92.4735413,108.974384 93.3721456,108.295882 C94.2701319,107.599838 95.3448726,107.260274 96.5957496,107.260274 C98.0925994,107.260274 99.3966263,107.653717 100.471367,108.439351 C101.175912,108.938674 101.246367,109.778187 100.77049,110.332015" id="Fill-40" fill="#000000"></path>
                        <path d="M107.06784,114.822564 L107.06784,117.643783 L112.206075,117.643783 C112.963749,117.643783 113.435374,118.178909 113.435374,118.916567 C113.435374,119.636107 112.963749,120.171233 112.206075,120.171233 L106.158276,120.171233 C105.147059,120.171233 104.557823,119.525458 104.557823,118.418971 L104.557823,109.012536 C104.557823,107.906048 105.147059,107.260274 106.158276,107.260274 L112.206075,107.260274 C112.963749,107.260274 113.435374,107.7954 113.435374,108.533058 C113.435374,109.252598 112.963749,109.787077 112.206075,109.787077 L107.06784,109.787077 L107.06784,112.331997 L111.936575,112.331997 C112.6777,112.331997 113.149326,112.86777 113.149326,113.586663 C113.149326,114.269321 112.6777,114.822564 111.936575,114.822564 L107.06784,114.822564 Z" id="Fill-42" fill="#000000"></path>
                        <path d="M92.7754573,53.0121371 C89.0158895,48.8669361 81.6266623,48.1767844 76.6236832,53.1426897 C73.7471349,55.997074 73.292754,57.5189628 72.5001317,58.6179345 L72.5001317,58.6179345 L72.4995331,58.6179345 C71.7075094,57.5189628 71.2525299,55.997074 68.3765802,53.1426897 C63.3736011,48.1767844 55.9837753,48.8669361 52.2248061,53.0121371 C49.2111652,56.7632283 48.8986661,61.1223395 49.6924857,65.8657537 C50.2630061,69.2766724 52.7492299,74.4252289 55.2588013,77.8582129 C60.0612302,84.4275259 66.0843214,90.339785 72.4995331,95.3424658 L72.5001317,95.3424658 L72.5001317,95.3424658 C78.9159421,90.339785 84.9390332,84.4275259 89.7414621,77.8582129 C92.2510335,74.4252289 94.7372573,69.2766724 95.3077777,65.8657537 C96.1009987,61.1223395 95.7890982,56.7632283 92.7754573,53.0121371" id="Fill-44" fill="#FF9100" style="mix-blend-mode: multiply;"></path>
                        <path d="M17.755102,72.5 C17.755102,73.0482192 17.3131973,73.4931507 16.7687075,73.4931507 C16.2237245,73.4931507 15.7823129,73.0482192 15.7823129,72.5 C15.7823129,71.9517808 16.2237245,71.5068493 16.7687075,71.5068493 C17.3131973,71.5068493 17.755102,71.9517808 17.755102,72.5" id="Fill-46" fill="#333333"></path>
                        <path d="M129.217687,72.5 C129.217687,73.0482192 128.775782,73.4931507 128.231293,73.4931507 C127.686803,73.4931507 127.244898,73.0482192 127.244898,72.5 C127.244898,71.9517808 127.686803,71.5068493 128.231293,71.5068493 C128.775782,71.5068493 129.217687,71.9517808 129.217687,72.5" id="Fill-48" fill="#333333"></path>
                    </g>
                </g>
            </g>
        </g>
    </g>
</svg>